<?xml version="1.0" encoding="utf-8"?>
<!-- Generator: Adobe Illustrator 16.0.0, SVG Export Plug-In . SVG Version: 6.00 Build 0)  -->
<!DOCTYPE svg PUBLIC "-//W3C//DTD SVG 1.1//EN" "http://www.w3.org/Graphics/SVG/1.1/DTD/svg11.dtd">
<svg version="1.1" id="Layer_1" xmlns="http://www.w3.org/2000/svg" xmlns:xlink="http://www.w3.org/1999/xlink" x="0px" y="0px"
	 width="78.788px" height="64.646px" viewBox="0 0 78.788 64.646" enable-background="new 0 0 78.788 64.646" xml:space="preserve">
<path fill-rule="evenodd" clip-rule="evenodd" fill="#B39363" d="M34.928,6.703c0.6,0.006,2.123,0.018,2.522,0
	c0.01,0.147,0.274,0.032,0.391,0.064c6.842,0.507,11.563,3.131,15.514,6.528c0.124,0.18,0.276,0.334,0.447,0.453
	c0.309,0.253,0.594,0.536,0.841,0.843c0.126,0.176,0.274,0.323,0.457,0.451c3.154,3.611,5.592,7.937,6.396,13.896
	c0.036,0.095-0.074,0.34,0.066,0.325c0,0.087,0,0.179,0,0.261c0.034,0.095-0.068,0.333,0.066,0.317c0,0.13,0,0.265,0,0.387
	c0.036,0.101-0.074,0.341,0.063,0.325c-0.058,0.156,0.039,0.636,0,0.976c0,0.475,0,0.947,0,1.418c0,0.256,0,0.518,0,0.775
	c-0.144,0.03-0.021,0.32-0.063,0.454c-0.532,6.48-3.012,11.038-6.208,14.866c-0.128,0.083-0.245,0.187-0.321,0.326
	c-0.09,0.189-0.299,0.263-0.389,0.45c-0.35,0.3-0.675,0.62-0.97,0.975c-0.166,0.061-0.217,0.252-0.387,0.315
	c-0.139,0.08-0.245,0.191-0.323,0.331c-3.796,3.165-8.309,5.612-14.679,6.198c-0.133,0.044-0.419-0.076-0.447,0.059
	c-0.217,0-0.436,0-0.648,0c-0.219,0.049-0.6-0.078-0.71,0.072c-0.021,0-0.04,0-0.064,0c-0.323-0.15-0.929-0.021-1.362-0.072
	c-0.238,0-0.472,0-0.71,0c0.012-0.134-0.229-0.021-0.323-0.059c-7.596-0.72-12.698-3.94-16.741-8.2
	c-0.084-0.137-0.19-0.248-0.325-0.333c-3.238-3.87-5.75-8.467-6.273-15.063c-0.038-0.17,0.088-0.512-0.063-0.578
	c0-0.839,0-1.685,0-2.521c0.15-0.046,0.024-0.36,0.063-0.518c0-0.151,0-0.3,0-0.454c0.138,0.018,0.032-0.226,0.065-0.323
	c0.694-6.41,3.269-10.956,6.596-14.735c0.521-0.468,1.015-0.961,1.488-1.484c3.975-3.478,8.744-6.164,15.708-6.661
	C34.701,6.735,34.938,6.851,34.928,6.703z M40.361,11.037c-0.175,0-0.35,0-0.522,0c-0.11,0.034-0.377-0.083-0.385,0.061
	c-3.4,0.306-6.274,1.14-8.663,2.458c6.492,0.36,10.942,3.331,14.873,6.467c2.508-1.902,5.12-3.709,7.761-5.493
	c-2.671-1.748-5.727-3.117-9.834-3.432c0.013-0.142-0.229-0.026-0.322-0.061c-0.175,0-0.346,0-0.516,0
	c-0.155-0.155-0.584-0.027-0.843-0.063c-0.213,0-0.432,0-0.645,0C40.979,11.01,40.533,10.882,40.361,11.037z M57.361,25.327
	c-0.227-4.344-1.644-7.499-3.427-10.284c-1.838,2.513-3.571,5.138-5.43,7.63c-0.064,0-0.078,0.054-0.128,0.063
	c-0.015,0.161,0.098,0.204,0.194,0.263c2.987,3.691,5.584,7.769,6.266,13.763c0.042,0.11-0.074,0.38,0.07,0.39
	c0.042,0.15-0.084,0.466,0.059,0.516c1.186-2.677,2.263-5.798,2.396-9.309c0.148-0.01,0.027-0.274,0.066-0.385
	c0-0.758,0-1.509,0-2.266C57.389,25.597,57.51,25.331,57.361,25.327z M26.655,17.302c-3.22,0.298-4.974,2.054-5.367,5.176
	c-0.139-0.013-0.034,0.229-0.06,0.326c0,0.451,0,0.901,0,1.355c0.036,0.109-0.081,0.379,0.06,0.388
	c0.799,5.532,3.417,9.252,6.396,12.604c0.909-1.205,1.956-2.271,2.913-3.429c0.131-0.082,0.243-0.191,0.327-0.317
	c0.087-0.197,0.297-0.264,0.386-0.458c0.176-0.123,0.331-0.275,0.447-0.449c0.112-0.213,0.345-0.309,0.453-0.52
	c0.285-0.23,0.548-0.489,0.78-0.775c0.787-0.847,1.607-1.663,2.452-2.454c0.285-0.232,0.552-0.493,0.78-0.775
	c0.209-0.111,0.306-0.34,0.516-0.452c0.179-0.122,0.331-0.278,0.454-0.457c0.19-0.088,0.257-0.297,0.455-0.385
	c0.128-0.08,0.236-0.19,0.317-0.324c0.156-0.044,0.17-0.215,0.322-0.258c0.141-0.081,0.245-0.188,0.327-0.328
	c0.131-0.014,0.129-0.171,0.259-0.191c0.133-0.078,0.239-0.189,0.321-0.321c0.668-0.537,1.334-1.078,1.944-1.686
	c-3.577-2.774-7.129-5.584-12.801-6.27c-0.03-0.137-0.327-0.021-0.453-0.061c-0.306,0-0.606,0-0.907,0
	C26.88,17.273,26.644,17.165,26.655,17.302z M17.473,27.127c-0.028-0.084,0.078-0.333-0.064-0.322
	c-1.02,2.36-1.938,4.83-2.264,7.891c-0.139-0.009-0.03,0.223-0.064,0.318c-0.008,0.403-0.13,0.972-0.062,1.231
	c-0.145,0.031-0.03,0.32-0.068,0.45c0,0.606,0,1.209,0,1.813c0.044,0.174-0.076,0.507,0.068,0.583
	c0.234,4.201,1.617,7.692,3.555,10.404c1.729-2.691,3.594-5.238,5.426-7.821c-3.084-3.781-5.801-7.938-6.459-14.152
	C17.5,27.403,17.612,27.14,17.473,27.127z M51.089,39.734c-0.776-5.426-3.477-8.932-6.205-12.416
	c-0.865,0.736-1.507,1.691-2.262,2.523c-0.132,0.087-0.245,0.195-0.321,0.327c-0.072,0.168-0.259,0.221-0.322,0.385
	c-0.139,0.078-0.245,0.186-0.323,0.33c-0.095,0.189-0.301,0.261-0.39,0.448c-0.177,0.124-0.323,0.275-0.455,0.448
	c-0.139,0.24-0.388,0.355-0.52,0.586c-0.35,0.292-0.668,0.625-0.963,0.97c-0.559,0.608-1.142,1.191-1.748,1.744
	c-0.329,0.275-0.632,0.576-0.909,0.906c-0.229,0.136-0.347,0.385-0.575,0.521c-0.203,0.14-0.373,0.316-0.521,0.516
	c-0.167,0.068-0.213,0.257-0.386,0.322c-0.154,0.102-0.287,0.231-0.392,0.387c-0.148,0.044-0.174,0.219-0.318,0.259
	c-0.143,0.081-0.245,0.188-0.325,0.319c-0.483,0.43-0.929,0.749-1.489,1.231c-0.078,0.066-1.428,1.16-1.42,1.293
	c0.004,0.126,1.009,0.812,1.292,1.035c3.152,2.524,7.424,5.077,12.089,5.301c0.09,0.106,0.619,0.106,0.718,0
	c3.234-0.098,5.361-1.877,5.746-5.048c0.143,0.014,0.03-0.221,0.064-0.32c0-0.171,0-0.342,0-0.513c0.114-0.091,0.114-0.624,0-0.713
	c0-0.17,0-0.346,0-0.519C51.119,39.962,51.231,39.726,51.089,39.734z M40.554,50.853c-5.987-0.756-10.135-3.354-13.77-6.461
	c-2.557,1.906-5.283,3.637-7.823,5.556c2.769,1.738,5.847,3.161,10.088,3.425c0.006,0.146,0.27,0.029,0.388,0.07
	c0.236,0,0.474,0,0.71,0c0.217,0.106,0.879,0.106,1.098,0c0.188,0.084,0.611-0.063,0.967,0c0.118-0.041,0.384,0.076,0.392-0.07
	c3.567-0.248,6.488-1.142,8.986-2.457c-0.217,0-0.436,0-0.646,0C40.935,50.776,40.666,50.891,40.554,50.853z"/>
</svg>
