<?xml version="1.0" encoding="utf-8"?>
<!-- Generator: Adobe Illustrator 16.0.0, SVG Export Plug-In . SVG Version: 6.00 Build 0)  -->
<!DOCTYPE svg PUBLIC "-//W3C//DTD SVG 1.1//EN" "http://www.w3.org/Graphics/SVG/1.1/DTD/svg11.dtd">
<svg version="1.1" id="Layer_1" xmlns="http://www.w3.org/2000/svg" xmlns:xlink="http://www.w3.org/1999/xlink" x="0px" y="0px"
	 width="141.293px" height="54.545px" viewBox="0 0 141.293 54.545" enable-background="new 0 0 141.293 54.545"
	 xml:space="preserve">
<g>
	<path fill="#992838" d="M23.912,14.197c0.139-0.111,0.382-0.173,0.73-0.173c0.236,0,0.432,0.038,0.584,0.112
		c0.156,0.082,0.403,0.248,0.736,0.501c0.521,0.427,0.803,0.679,0.828,0.745c0.032,0.068,0.201,0.191,0.47,0.551
		c0.247,0.335,0.516,0.957,0.702,1.314c0.183,0.364,0.315,0.552,0.396,0.573c0.095,0.036,0.309-0.016,0.645-0.16
		c0.324-0.148,0.726-0.242,0.845-0.253c0.112-0.004,0.389-0.082,0.992,0.032c0.603,0.116,0.941,0.236,1.023,0.351
		c0.095,0.139,0.521,0.304,0.643,0.499c0.116,0.193,0.177,0.419,0.177,0.669c0,0.235-0.049,0.422-0.135,0.57
		c-0.089,0.145-0.295,0.396-0.628,0.744c-0.604,0.664-0.989,1.108-1.154,1.347c-0.166,0.232-0.269,0.466-0.307,0.7
		c-0.056,0.426,0.175,1.07,0.7,1.925c0.078,0.116,0.241,0.45,0.481,0.996c0.245,0.545,0.397,0.906,0.458,1.082
		c0.034,0.113,0.114,0.197,0.229,0.248c0.114,0.05,0.225,0.051,0.323,0.015c0.092-0.04,0.148-0.118,0.148-0.234
		c0-0.174,0.078-0.421,0.23-0.732c0.546-1.071,0.778-1.782,0.702-2.131c-0.038-0.233-0.006-0.359,0.101-0.38
		c0.106-0.019,0.327,0.048,0.66,0.206c0.565,0.269,0.839,0.786,0.82,1.547c-0.022,0.411-0.219,1.713-0.588,3.914l-0.207,1.255
		l0.382,0.701c0.489,0.932,1.258,2.076,2.31,3.434c1.049,1.354,1.681,2.029,1.897,2.029c0.097,0,0.148-0.041,0.148-0.115
		c-0.02-0.098-0.118-0.506-0.293-1.229c-0.257-0.896-0.335-1.354-0.236-1.373c0.058-0.016,0.185,0.137,0.381,0.469
		c0.038,0.076,0.097,0.162,0.175,0.262c0.525,0.916,1.149,1.773,1.874,2.572c0.307,0.33,0.552,0.74,0.729,1.242
		c0.172,0.496,0.343,0.895,0.509,1.195c0.169,0.299,0.249,0.703,0.249,1.209c0,0.432-0.058,0.705-0.177,0.822
		c-0.116,0.117-0.371,0.174-0.758,0.174c-0.215,0-0.401-0.049-0.552-0.158c-0.161-0.113-0.441-0.375-0.849-0.803
		c-0.606-0.645-0.909-1.004-0.909-1.082s-0.367-0.514-1.109-1.316c-0.774-0.834-1.916-2.279-3.417-4.322
		c-0.311-0.447-0.493-0.729-0.544-0.846c-0.046-0.119-0.148-0.18-0.305-0.18c-0.097,0-0.158,0.045-0.19,0.121
		c-0.028,0.078-0.044,0.252-0.044,0.525c0,0.428,0.042,0.855,0.118,1.283c0.058,0.295,0.068,0.508,0.03,0.645
		c-0.04,0.137-0.195,0.398-0.466,0.789c-0.371,0.541-0.556,0.844-0.556,0.9c0,0.061,0.13,0.154,0.396,0.283
		c0.261,0.127,0.483,0.129,0.626,0.189c0.269,0.113,0.545,0.213,1.041,0.338c0.518,0.121,0.937,0.26,1.262,0.377
		c0.523,0.184,0.612,0.377,0.658,0.414c0.104,0.082,0.127,0.184,0.223,0.359c0.097,0.172,0.064,0.332-0.101,0.469
		c-0.168,0.135-0.176,0.266-0.252,0.365c-0.055,0.086-0.127,0.268-0.201,0.268c-0.078,0-0.487,0.008-0.877-0.053
		c-0.391-0.055-0.758-0.139-1.111-0.246c-0.354-0.105-1.119-0.17-2.31-0.191c-1.186-0.018-2.055,0.072-2.6,0.266
		c-1.441,0.488-4.1,0.75-7.978,0.785c-1.242,0.027-1.868-0.072-1.868-0.287c0-0.08,0.331-0.227,0.993-0.441
		c1.149-0.346,1.862-0.65,2.137-0.904c0.032-0.041,0.084-0.457,0.143-1.256c0.158-2.357,0.274-3.533,0.352-3.533
		c0.02,0,0.065,0.045,0.148,0.143c0.152,0.18,0.232,0.367,0.232,0.572c0,0.201,0.293,0.686,0.481,1.213
		c0.185,0.527,0.388,1.002,0.596,1.432c0.158,0.293,0.271,0.465,0.337,0.523c0.068,0.057,0.173,0.064,0.31,0.033
		c0.586-0.141,0.887-0.285,0.904-0.445c0-0.092,0.022-0.57,0.061-1.43c0.04-0.855-0.016-1.402-0.162-1.648
		c-0.145-0.246-0.268-0.365-0.365-0.365c-0.093,0-0.201-0.064-0.308-0.191c-0.108-0.127-0.287-0.246-0.539-0.369l-0.382-0.139
		l0.791-0.527c0.604-0.367,0.969-0.625,1.095-0.758c0.125-0.139,0.153-0.326,0.072-0.561c-0.058-0.25-0.086-0.902-0.086-1.951
		c0-1.364-0.101-2.1-0.291-2.208c-0.196-0.105-0.686,0.341-1.463,1.33c-0.411,0.546-0.689,0.888-0.849,1.021
		c-0.156,0.137-0.303,0.186-0.435,0.148c-0.103-0.023-0.167-0.006-0.207,0.041c-0.042,0.049-0.08,0.172-0.116,0.367
		c-0.036,0.289-0.169,0.721-0.384,1.283c-0.194,0.549-0.438,1.287-0.742,2.223c-0.301,0.934-0.455,1.449-0.455,1.545
		c0,0.1-0.101,0.361-0.303,0.793c-0.207,0.424-0.363,0.699-0.468,0.818c-0.108,0.115-0.275,0.248-0.496,0.395
		c-0.225,0.143-0.447,0.168-0.662,0.072c-0.19-0.117-0.389-0.305-0.596-0.561c-0.204-0.248-0.354-0.523-0.451-0.814
		c-0.08-0.254-0.104-0.709-0.076-1.359c0.032-0.648,0.094-1.035,0.188-1.158c0.061-0.092,0.447-1.141,0.56-1.6
		c0.129-0.531,0.456-2.146,0.554-2.689c0.093-0.544,0.199-1.5,0.219-2.082c0.024-0.589,0.019-1.074-0.032-1.481
		c-0.048-0.41-0.08-0.809-0.1-1.197c-0.019-0.391-0.667-2.558-0.833-2.995c-0.167-0.439-0.232-0.668-0.207-0.701
		c0.034-0.025,0.271,0.022,0.719,0.163c0.447,0.133,0.82,0.232,1.121,0.29c0.308,0.06,0.538,0.169,0.705,0.337
		c0.166,0.167,0.507,0.44,1.021,0.83c0.518,0.389,0.776,0.688,0.776,0.892c0,0.205,0.291,1.787,0.35,2.119
		c0.038,0.271,0.106,0.444,0.204,0.51c0.101,0.068,0.235,0.057,0.41-0.041c0.174-0.099,0.409-0.303,0.7-0.616
		c0.569-0.604,1.123-1.291,1.667-2.071c0.546-0.779,0.826-1.31,0.849-1.579c0.059-0.368,0.008-0.555-0.148-0.555
		c-0.177,0.018-0.769,0.292-1.781,0.816c-0.367,0.193-0.848,0.317-1.445,0.363c-0.598,0.051-0.951,0.097-1.069,0.137
		c-0.052,0.016-0.104,0.008-0.145-0.033c-0.04-0.038-0.066-0.117-0.086-0.229c-0.022-0.197,0.106-0.373,0.373-0.528
		c0.295-0.176,0.822-0.584,1.585-1.229c0.192-0.152,0.325-0.231,0.394-0.231c0.07,0,0.257-0.187,0.569-0.556
		c0.193-0.236,0.321-0.425,0.382-0.567c0.058-0.146,0.086-0.355,0.086-0.629c0-0.431-0.082-0.73-0.251-0.908
		c-0.164-0.178-0.353-0.472-0.569-0.889c-0.215-0.422-0.388-0.686-0.508-0.788c-0.131-0.108-0.313-0.544-0.542-0.603
		c-0.234-0.056-0.401-0.097-0.499-0.115c-0.112-0.039-0.165-0.194-0.145-0.466C23.728,14.45,23.794,14.277,23.912,14.197z
		 M28.559,26.178c0-0.214-0.04-0.323-0.116-0.323c-0.194,0.018-0.443,0.113-0.746,0.275c-0.301,0.168-0.54,0.347-0.714,0.542
		l-0.407,0.436l0.29,0.618c0.327,0.64,0.622,0.917,0.875,0.817c0.101-0.038,0.259-0.379,0.483-1.025
		C28.444,26.876,28.559,26.432,28.559,26.178z M28.533,33.859c-0.08-0.096-0.152-0.141-0.223-0.133
		c-0.068,0.01-0.229,0.074-0.481,0.191l-0.405,0.207v1.338c0,0.879-0.028,1.445-0.076,1.711c-0.049,0.262-0.013,0.393,0.102,0.393
		c0.428,0,0.769-0.254,1.025-0.758c0.251-0.504,0.337-1.127,0.261-1.867C28.674,34.318,28.609,33.955,28.533,33.859z M30.607,26.616
		c-0.156-0.253-0.278-0.413-0.367-0.469c-0.086-0.062-0.16-0.04-0.219,0.056c-0.058,0.101-0.108,0.291-0.146,0.585
		c-0.058,0.331-0.23,0.924-0.525,1.784c-0.392,1.126-0.624,2.003-0.7,2.628c-0.022,0.076,0.006,0.131,0.086,0.16
		c0.076,0.027,0.203,0.053,0.38,0.072c0.834,0.021,1.412-0.164,1.725-0.555c0.542-0.682,0.815-1.197,0.815-1.551
		c0.023-0.154-0.036-0.419-0.171-0.8c-0.141-0.381-0.267-0.668-0.381-0.861C30.989,27.51,30.822,26.945,30.607,26.616z
		 M31.218,34.267c-0.15-0.059-0.384-0.078-0.687-0.059c-0.301,0.018-0.52,0.07-0.656,0.145c-0.118,0.08-0.181,0.197-0.19,0.352
		c-0.01,0.158,0.055,0.525,0.19,1.109c0.156,0.705,0.273,1.129,0.352,1.285c0.078,0.16,0.225,0.234,0.441,0.234
		c0.172,0,0.285-0.045,0.329-0.133c0.052-0.086,0.124-0.344,0.221-0.773C31.511,35.105,31.511,34.384,31.218,34.267z M32.385,15.104
		c0.219-0.1,0.552-0.146,1.01-0.146c0.459,0,0.756,0.039,0.889,0.115c1.326,0.779,1.988,1.444,1.988,1.988
		c0,0.138-0.192,0.292-0.582,0.468c-0.391,0.175-0.613,0.276-0.672,0.307c-0.059,0.029-0.352-0.175-0.879-0.612
		c-0.523-0.442-1.011-0.822-1.456-1.155c-0.355-0.254-0.552-0.452-0.603-0.599C32.034,15.326,32.133,15.199,32.385,15.104z"/>
	<path fill="#992838" d="M64.318,15.398c0.193-0.175,0.392-0.254,0.597-0.237c0.206,0.02,0.548,0.16,1.039,0.408
		c0.544,0.294,0.869,0.51,0.965,0.646c0.095,0.134,0.104,0.371,0.024,0.702c-0.112,0.387-0.271,1.132-0.466,2.232
		c-0.194,1.099-0.321,1.879-0.379,2.322l-0.089,0.762l1.14-0.059c0.526-0.043,0.865-0.053,1.021-0.031
		c0.156,0.022,0.354,0.105,0.584,0.261c0.312,0.218,0.516,0.323,0.614,0.323c0.158,0,0.253,0.183,0.295,0.555
		c0.04,0.374-0.01,0.574-0.148,0.617c-0.116,0.015-0.721,0.027-1.814,0.027c-1.087,0-1.657,0.023-1.707,0.072
		c-0.046,0.048-0.141,0.402-0.274,1.063c-0.175,0.841-0.249,2.273-0.219,4.296c0.025,2.025,0.148,3.436,0.364,4.234
		c0.41,1.715,0.612,3.156,0.612,4.326c0,0.563-0.026,0.928-0.07,1.096c-0.05,0.164-0.181,0.412-0.397,0.744
		c-0.309,0.445-0.525,0.668-0.642,0.668c-0.192,0-0.449-0.096-0.761-0.289c-0.313-0.195-0.535-0.387-0.672-0.586
		c-0.192-0.268-0.634-0.77-1.328-1.488c-0.69-0.723-1.035-1.146-1.035-1.283s-0.313-0.664-0.938-1.578
		c-0.619-0.914-1.104-1.881-1.428-2.891l-0.526-1.49l0.259-0.295c0.197-0.191,0.526-0.412,0.997-0.645
		c0.291-0.17,0.512-0.275,0.671-0.303c0.158-0.027,0.347-0.025,0.586,0.016c0.328,0.057,0.655,0.172,0.975,0.35
		c0.321,0.17,0.552,0.371,0.688,0.582c0.098,0.115,0.143,0.217,0.13,0.295c-0.01,0.076-0.07,0.203-0.19,0.379
		c-0.114,0.191-0.209,0.309-0.272,0.336c-0.072,0.027-0.193,0.033-0.371,0.012c-1.168-0.209-1.967-0.262-2.392-0.143
		c-0.175,0.039-0.273,0.086-0.295,0.143c-0.019,0.059-0.009,0.225,0.034,0.5c0.154,1.268,0.98,2.531,2.481,3.799
		c0.835,0.697,1.515,1.107,2.044,1.227c0.195,0.059,0.315,0.066,0.365,0.025c0.047-0.035,0.115-0.176,0.191-0.408
		c0.094-0.332,0.076-1.275-0.059-2.832c-0.141-1.424-0.219-2.555-0.236-3.404c-0.021-0.848,0.008-2.057,0.088-3.638
		c0.038-1.09,0.052-1.77,0.044-2.042c-0.01-0.277-0.064-0.413-0.16-0.413c-0.116,0-0.199,0.041-0.249,0.12
		c-0.048,0.076-0.229,0.164-0.538,0.265c-0.373,0.137-1.555,0.693-3.551,1.675c-1.998,0.987-3.13,1.577-3.405,1.771
		c-0.311,0.234-0.523,0.497-0.642,0.79c-0.118,0.292-0.194,0.758-0.232,1.401c-0.022,0.602-0.106,1.109-0.264,1.516
		c-0.525,1.291-0.885,2.064-1.079,2.338c-0.118,0.197-0.314,0.344-0.586,0.439c-0.272,0.096-0.537,0.119-0.784,0.061
		c-0.221-0.041-0.478-0.217-0.778-0.527s-0.558-0.672-0.776-1.078c-0.229-0.451-0.58-0.818-1.048-1.117
		c-0.409-0.248-0.676-0.385-0.788-0.406c-0.121-0.016-0.207,0.07-0.265,0.266c-0.061,0.193-0.167,0.395-0.321,0.602
		c-0.159,0.203-0.293,0.586-0.409,1.15c-0.139,0.699-0.338,1.215-0.601,1.547s-0.649,0.568-1.153,0.703
		c-0.331,0.1-0.786-0.207-1.374-0.908c-0.155-0.195-0.247-0.365-0.277-0.523c-0.026-0.154-0.024-0.613,0.017-1.371
		c0.018-0.664,0.05-1.119,0.088-1.377c0.038-0.25,0.128-0.514,0.261-0.787c0.217-0.41,0.354-0.818,0.409-1.238
		c0.059-0.42,0.127-0.7,0.205-0.835c0.139-0.27,0.242-0.933,0.322-1.985c0.079-1.053,0.079-1.853,0-2.397
		c-0.08-0.392-0.058-0.583,0.055-0.583c0.158,0,0.377,0.115,0.664,0.353c0.279,0.23,0.487,0.455,0.624,0.672
		c0.175,0.271,0.392,0.61,0.644,1.023c0.233,0.388,0.464,0.766,0.703,1.134l0.347,0.556l0.409-0.231
		c0.273-0.156,0.769-0.456,1.489-0.895c0.722-0.437,1.26-0.675,1.612-0.711c0.249-0.021,0.45,0,0.597,0.058
		c0.146,0.06,0.411,0.236,0.8,0.525l0.852,0.674l0.702-0.237c0.463-0.154,1.633-0.704,3.503-1.647
		c1.868-0.948,3.178-1.565,3.929-1.857c0.748-0.293,1.182-0.494,1.3-0.597c0.114-0.109,0.198-1.14,0.23-3.081l0.064-2.897
		l-0.472-0.522l-0.438-0.526L64.318,15.398z M53.362,27.684c-0.034-0.107-0.121-0.098-0.386-0.098c-0.188,0-0.68,0.229-1.621,0.862
		c-0.915,0.616-1.147,1.334-1.147,1.489c0,0.111,0.403-0.131,1.294-0.564C52.935,28.67,53.593,28.484,53.362,27.684z"/>
	<path fill="#992838" d="M86.489,13.876c0.133-0.096,0.367-0.149,0.698-0.16c0.333-0.007,0.66,0.028,0.995,0.104
		c0.487,0.133,1.021,0.756,1.607,1.868c0.291,0.527,0.56,0.855,0.807,0.994c0.24,0.133,0.478,0.31,0.71,0.525
		c0.215,0.213,0.297,0.38,0.232,0.512c-0.056,0.127-0.271,0.238-0.64,0.335c-0.719,0.193-1.21,0.535-1.461,1.021
		c-0.096,0.197-0.143,0.32-0.132,0.378c0.01,0.06,0.114,0.151,0.309,0.266c0.175,0.14,0.58,0.515,1.212,1.142
		c0.632,0.623,0.949,0.953,0.949,0.991c0,0.036-0.205,0.166-0.616,0.382c-0.329,0.171-0.704,0.488-1.123,0.947
		c-0.42,0.458-0.627,0.793-0.627,1.006c0,0.099,0.037,0.159,0.099,0.174c0.068,0.023,0.233,0.031,0.485,0.031
		c0.428-0.015,0.757,0.026,0.993,0.135c0.235,0.104,0.564,0.355,0.993,0.745l0.757,0.699l-0.321,0.465
		c-0.211,0.313-0.367,0.466-0.465,0.466c-0.139,0-0.376,0.215-0.736,0.526c-0.357,0.31-0.534,0.536-0.841,0.852
		c-0.312,0.32-1.465,1.499-1.766,1.846c-0.302,0.354-1.027,1.387-1.187,1.658c-0.116,0.193-0.234,0.572-0.349,1.139
		c-0.118,0.566-0.19,1.057-0.221,1.477c-0.028,0.42-0.006,0.664,0.074,0.746c0.074,0,0.497-0.381,1.272-1.139
		c0.766-0.76,1.442-1.346,2.026-1.758c0.893-0.586,1.524-1.082,1.886-1.502c0.361-0.418,0.626-0.961,0.805-1.621
		c0.098-0.351,0.236-0.642,0.423-0.878c0.185-0.232,0.365-0.347,0.54-0.347s0.434,0.158,0.774,0.479
		c0.341,0.318,0.608,0.648,0.803,0.978c0.215,0.354,0.341,0.809,0.381,1.373l0.087,0.846l-1.168,1.051
		c-0.759,0.725-1.373,1.201-1.84,1.436c-0.683,0.328-1.023,0.631-1.023,0.902c0,0.078,0.205,0.232,0.614,0.455
		c0.409,0.227,0.689,0.336,0.845,0.336c0.102,0,0.646,0.205,1.641,0.613c0.637,0.273,1.096,0.492,1.368,0.658
		c0.273,0.164,0.603,0.445,0.995,0.832c1.088,1.051,1.638,1.957,1.638,2.715v0.525l-0.381-0.057c-0.47-0.1-0.917-0.289-1.345-0.566
		c-0.428-0.285-1.073-0.828-1.93-1.625c-1.208-1.07-1.908-1.676-2.102-1.813c-0.194-0.137-0.505-0.404-0.933-0.818l-0.644-0.611
		l-0.15,0.293c-0.113,0.193-0.163,0.43-0.143,0.699c0.018,0.232-0.028,0.436-0.145,0.598c-0.121,0.164-0.632,0.729-1.551,1.684
		c-0.58,0.602-1.128,1.104-1.636,1.504c-0.504,0.398-0.925,0.664-1.256,0.787c-0.331,0.127-0.554,0.109-0.672-0.043
		c-0.038-0.08-0.188-0.146-0.436-0.205c-0.232-0.059-0.426-0.182-0.572-0.377c-0.146-0.197-0.288-0.531-0.423-0.998
		c-0.16-0.506-0.199-1.064-0.114-1.676c0.078-0.613,0.15-0.99,0.23-1.127c0.036-0.096,0.082-0.357,0.133-0.773
		c0.05-0.418,0.078-0.793,0.086-1.125c0.01-0.332-0.012-0.527-0.076-0.584c-0.074,0-0.265,0.225-0.565,0.674
		c-0.304,0.445-0.631,0.662-0.815,0.859c-0.271,0.277-0.724,0.797-1.085,1.066c-0.359,0.273-1.395,1.143-1.912,1.461
		c-0.672,0.41-0.858,0.105-1.109-0.031c-0.197-0.094-0.308-0.191-0.337-0.291c-0.028-0.096-0.045-0.354-0.045-0.756
		c0-0.369,0.021-0.635,0.059-0.793c0.038-0.152,0.095-0.402,0.323-0.609c0.096-0.094,1.077-0.49,1.635-0.881
		c0.022-0.016,0.323-0.271,0.907-0.873c0.582-0.604,1.17-1.242,1.764-1.914c0.598-0.67,0.923-1.064,0.98-1.182
		c0.059-0.1,0.101-0.225,0.131-0.383c0.03-0.156,0.044-0.293,0.044-0.41c0-0.113-0.02-0.174-0.056-0.174
		c-0.042,0-0.538,0.23-1.491,0.688c-0.953,0.459-1.528,0.648-1.707,0.688c-0.213,0.043-0.666,0.322-0.736,0.322
		c-0.066,0-0.188-0.051-0.361-0.15c-0.468-0.248-0.738-0.787-0.82-1.604c-0.038-0.471,0.012-0.797,0.148-0.979
		c0.134-0.184,0.465-0.353,0.995-0.511c0.562-0.194,1.167-0.492,1.808-0.893c0.642-0.398,1.189-0.82,1.635-1.269
		c0.43-0.451,0.656-0.761,0.677-0.938c0.018-0.177-0.161-0.354-0.528-0.524c-0.331-0.174-0.809-0.246-1.431-0.206
		c-0.644,0.021-1.113-0.004-1.406-0.071c-0.289-0.071-0.483-0.191-0.58-0.363c-0.116-0.199-0.092-0.441,0.072-0.732
		c0.167-0.294,0.275-0.438,0.319-0.438c0.05,0,0.407-0.231,1.081-0.703c0.673-0.463,1.413-0.843,2.222-1.14
		c0.807-0.29,1.27-0.477,1.387-0.553c0.04-0.195-0.117-0.312-0.464-0.35c-0.333,0-0.636-0.059-0.909-0.178
		c-0.272-0.115-0.74-0.306-1.4-0.567c-0.664-0.263-1.14-0.515-1.435-0.75c-0.194-0.153-0.299-0.263-0.319-0.332
		c-0.02-0.068,0.021-0.218,0.117-0.456c0.078-0.21,0.192-0.36,0.335-0.45c0.148-0.085,0.544-0.227,1.186-0.422
		c0.913-0.292,1.655-0.594,2.217-0.904l0.849-0.469l-0.058-0.851C86.234,14.342,86.313,13.994,86.489,13.876z M86.255,23.575
		c-0.021-0.155-0.135-0.232-0.352-0.232c-0.175-0.021-0.6,0.048-1.27,0.203c-0.673,0.155-1.052,0.275-1.126,0.354
		c-0.061,0.057,0.03,0.116,0.263,0.174c0.47,0.134,0.976,0.201,1.519,0.201c0.312,0,0.563-0.063,0.745-0.186
		C86.223,23.961,86.293,23.791,86.255,23.575z M90.522,34.412c0-0.23-0.227-0.223-0.675,0.031C89.79,34.484,88.725,35,88.287,35.23
		c-0.443,0.232-0.678,0.391-0.717,0.471c-0.038,0.113-0.14,0.133-0.295,0.057c-0.154-0.076-0.282-0.117-0.377-0.117
		c-0.058,0-0.094,0.225-0.104,0.67c-0.006,0.451,0.022,0.695,0.104,0.73c0.057,0.041,0.251-0.035,0.58-0.232
		c0.335-0.193,0.646-0.375,0.937-0.541c0.293-0.166,1.691-1.162,1.858-1.357C90.436,34.714,90.522,34.55,90.522,34.412z"/>
	<path fill="#992838" d="M109.798,25.563c0-0.077,0.303-0.087,0.906-0.029c0.43,0.042,0.717,0.086,0.865,0.143
		c0.143,0.06,0.341,0.26,0.656,0.527c0.435,0.371,0.666,0.613,0.714,0.613s0.479,0.49,0.422,0.936
		c-0.153,1.071-1.91,2.462-2.009,2.699c-0.118,0.191,0.046,3.215,0.068,4.229c0.044,2.115,0.259,3.418,0.103,3.709
		c-0.099,0.193-0.325,0.289-0.675,0.289c-0.345,0-0.915-0.102-1.13-0.246c-0.28-0.188-0.604-0.238-0.811-0.805
		c-0.206-0.563-0.269-1.23-0.188-1.986c0.197-1.598,0.231-2.426,0.116-2.484c-0.078-0.061-0.377,0.045-0.891,0.309
		c-0.518,0.262-1.195,0.92-1.679,1.33c-0.293,0.27-0.508,0.439-0.645,0.508c-0.137,0.072-0.272,0.084-0.407,0.047
		c-0.51-0.119-0.763-0.514-0.763-1.201c0-0.309,0.034-0.523,0.104-0.639c0.068-0.117,0.293-0.359,0.685-0.732
		c0.546-0.504,2.556-2.504,3.513-3.525c0.951-1.017,1.409-1.741,1.471-1.837c0.239-0.372,0.53-0.995,0.512-1.211
		c-0.02-0.213-0.215-0.358-0.588-0.435C109.918,25.71,109.798,25.64,109.798,25.563z M109.948,18.553
		c0.212-0.254,0.379-0.416,0.493-0.482c0.118-0.065,0.275-0.105,0.466-0.105c0.548,0,1.005,0.441,1.374,1.316
		c0.156,0.429,0.261,1.251,0.312,2.469c0.046,1.219,0.029,1.932-0.049,2.15c-0.058,0.135-0.12,0.218-0.19,0.244
		c-0.07,0.029-0.238,0.025-0.508-0.012c-0.407-0.038-0.858,0.045-1.342,0.26c-0.487,0.216-0.785,0.41-1.014,0.559
		c-0.198,0.127-1.275,0.913-1.456,1.051c-0.187,0.136-0.436,0.338-0.745,0.614c-0.626,0.581-1.319,0.705-1.815,0.565
		c-0.076-0.021-0.47-0.116-0.6-0.217c-0.122-0.099-0.188-0.331-0.188-0.701c0-0.255,0.04-0.459,0.118-0.615
		c0.076-0.157,0.261-0.396,0.556-0.731c0.428-0.503,0.727-0.859,0.891-1.065c0.165-0.206,0.375-0.451,0.632-0.743
		c0.448-0.523,1.126-1.562,2.043-3.097C109.273,19.411,109.613,18.922,109.948,18.553z M124.701,23.283
		c0.19-0.137,0.495-0.193,0.9-0.175c0.409,0.021,0.761,0.098,1.054,0.234c0.778,0.41,1.254,0.79,1.433,1.139
		c0.078,0.155,0.025,0.335-0.127,0.335c-0.118,0-0.554,0.051-0.908,0.135c-0.498,0.111-0.855,0.191-1.038,0.241
		c-0.906,0.249-2.973,1.02-3.421,1.172c-0.533,0.187-1.021,0.36-1.039,0.368c-0.02,0.012,0.021,0.112,0.034,0.156
		c0.008,0.049,0.032,0.103,0.07,0.147c0.038,0.048,0.108,0.132,0.207,0.251c0.758,0.972,1.081,2.21,1.262,3.714
		c0.082,0.656,0.357,3.678,0.285,5.164c-0.068,1.383-0.074,2.355-0.219,2.924c-0.146,0.561-0.456,1.088-0.921,1.572
		c-0.312,0.336-0.558,0.529-0.73,0.588s-0.335,0.012-0.466-0.148c-0.116-0.096-0.548-0.156-1.288-0.174
		c-0.738-0.018-1.312,0.018-1.724,0.117c-0.602,0.158-0.845,0.164-0.728,0.029c0.114-0.139,0.501-0.371,1.167-0.701
		c1.073-0.545,1.78-1.012,2.117-1.402c0.343-0.389,0.64-1.051,0.887-1.99c0.122-0.447,0.188-0.869,0.207-1.266
		c0.021-0.402,0.021-1.281,0-2.643c-0.057-1.969-0.173-3.477-0.346-4.529l-0.327-1.729l-0.491,0.15
		c-0.875,0.203-4.097,1.325-4.368,1.483c-0.485,0.311-0.94,0.064-1.21-0.228c-0.142-0.155-0.36-0.301-0.678-0.438
		c-0.369-0.178-0.554-0.323-0.554-0.438c0-0.119,0.177-0.252,0.529-0.41c0.388-0.154,0.706-0.234,0.945-0.307
		c0.255-0.077,0.933-0.307,1.081-0.353c0.426-0.128,1.543-0.557,3.578-1.301c1.111-0.403,2.379-0.797,3.274-1.106
		C124.045,23.556,124.561,23.358,124.701,23.283z M118.473,18.416c0.155-0.019,0.403-0.049,0.703-0.024
		c0.391,0.037,0.762,0.051,1.502,0.189c0.749,0.136,1.176,0.265,1.303,0.308c0.185,0.059,0.474,0.147,0.993,0.45
		c0.485,0.284,0.771,0.548,0.904,0.701c0.081,0.101,0.11,0.173,0.089,0.219c-0.019,0.047-0.118,0.143-0.289,0.275
		c-0.432,0.354-0.854,0.642-1.272,0.863c-0.421,0.227-0.708,0.24-0.862,0.278c-0.563,0.134-0.939,0.329-1.784,1.044
		c-0.419,0.358-0.824,0.681-1.077,0.915c-0.313,0.273-0.468,0.331-0.468,0.176c-0.021-0.136,0.091-0.322,0.319-0.556
		c0.331-0.331,0.666-0.717,0.995-1.155c0.333-0.438,0.516-0.732,0.554-0.893c0.059-0.152-0.215-0.523-0.818-1.107
		c-0.468-0.467-0.839-0.729-1.045-0.863c-0.205-0.139-0.31-0.173-0.561-0.248c-0.299-0.084-0.358-0.146-0.06-0.32
		C117.852,18.522,118.1,18.477,118.473,18.416z"/>
</g>
</svg>
