<?xml version="1.0" encoding="utf-8"?>
<!-- Generator: Adobe Illustrator 16.0.0, SVG Export Plug-In . SVG Version: 6.00 Build 0)  -->
<!DOCTYPE svg PUBLIC "-//W3C//DTD SVG 1.1//EN" "http://www.w3.org/Graphics/SVG/1.1/DTD/svg11.dtd">
<svg version="1.1" id="Layer_1" xmlns="http://www.w3.org/2000/svg" xmlns:xlink="http://www.w3.org/1999/xlink" x="0px" y="0px"
	 width="135.232px" height="47.475px" viewBox="0 0 135.232 47.475" enable-background="new 0 0 135.232 47.475"
	 xml:space="preserve">
<g>
	<g>
		<path fill="#992838" d="M27.752,26.732c0-2.382,0-2.822-0.032-3.322c-0.032-0.53-0.154-0.782-0.674-0.889
			c-0.125-0.033-0.392-0.053-0.614-0.053c-0.166,0-0.261-0.028-0.261-0.138c0-0.111,0.106-0.142,0.345-0.142
			c0.829,0,1.818,0.046,2.146,0.046c0.533,0,1.726-0.046,2.209-0.046c0.987,0,2.036,0.09,2.883,0.67
			c0.439,0.301,1.067,1.102,1.067,2.148c0,1.159-0.487,2.227-2.072,3.511c1.398,1.755,2.479,3.152,3.4,4.122
			c0.879,0.909,1.523,1.019,1.758,1.064c0.173,0.032,0.311,0.048,0.439,0.048c0.122,0,0.187,0.046,0.187,0.123
			c0,0.126-0.11,0.159-0.297,0.159h-1.488c-0.875,0-1.271-0.074-1.674-0.298c-0.676-0.361-1.272-1.097-2.148-2.303
			c-0.628-0.861-1.351-1.928-1.552-2.165c-0.082-0.09-0.176-0.106-0.28-0.106l-1.368-0.03c-0.076,0-0.125,0.03-0.125,0.126v0.218
			c0,1.454,0,2.693,0.083,3.352c0.042,0.459,0.138,0.801,0.609,0.862c0.232,0.028,0.578,0.063,0.767,0.063
			c0.126,0,0.187,0.046,0.187,0.123c0,0.11-0.106,0.159-0.311,0.159c-0.909,0-2.069-0.049-2.308-0.049
			c-0.293,0-1.282,0.049-1.91,0.049c-0.201,0-0.313-0.049-0.313-0.159c0-0.077,0.064-0.123,0.251-0.123
			c0.239,0,0.424-0.034,0.564-0.063c0.314-0.062,0.391-0.403,0.455-0.862c0.078-0.658,0.078-1.897,0.078-3.339V26.732z M29.6,27.973
			c0,0.173,0.032,0.232,0.141,0.279c0.331,0.111,0.803,0.154,1.194,0.154c0.626,0,0.83-0.059,1.107-0.261
			c0.474-0.346,0.931-1.067,0.931-2.353c0-2.229-1.475-2.869-2.399-2.869c-0.394,0-0.677,0.017-0.833,0.063
			c-0.108,0.031-0.141,0.094-0.141,0.221V27.973z"/>
		<path fill="#992838" d="M39.581,26.732c0-2.382,0-2.822-0.03-3.322c-0.036-0.53-0.19-0.796-0.54-0.874
			c-0.169-0.048-0.371-0.067-0.558-0.067c-0.158,0-0.253-0.028-0.253-0.155c0-0.094,0.126-0.124,0.377-0.124
			c0.594,0,1.581,0.046,2.037,0.046c0.389,0,1.317-0.046,1.914-0.046c0.2,0,0.324,0.03,0.324,0.124c0,0.127-0.094,0.155-0.246,0.155
			c-0.161,0-0.285,0.02-0.472,0.053c-0.421,0.075-0.548,0.338-0.58,0.889c-0.032,0.5-0.032,0.94-0.032,3.322v2.757
			c0,1.521,0,2.761,0.064,3.435c0.046,0.425,0.156,0.705,0.626,0.767c0.217,0.028,0.562,0.063,0.799,0.063
			c0.173,0,0.253,0.046,0.253,0.123c0,0.11-0.129,0.159-0.299,0.159c-1.034,0-2.022-0.049-2.446-0.049
			c-0.361,0-1.349,0.049-1.975,0.049c-0.202,0-0.314-0.049-0.314-0.159c0-0.077,0.064-0.123,0.253-0.123
			c0.236,0,0.423-0.034,0.563-0.063c0.313-0.062,0.407-0.33,0.457-0.786c0.077-0.654,0.077-1.894,0.077-3.415V26.732z"/>
		<path fill="#992838" d="M47.241,22.25c0.046-0.265,0.141-0.408,0.265-0.408c0.128,0,0.221,0.079,0.423,0.488l4.276,8.836
			l4.266-8.947c0.126-0.247,0.202-0.377,0.343-0.377c0.143,0,0.238,0.158,0.283,0.488l1.426,9.684
			c0.139,0.986,0.3,1.444,0.769,1.581c0.454,0.142,0.767,0.157,0.972,0.157c0.141,0,0.25,0.016,0.25,0.108
			c0,0.125-0.19,0.174-0.409,0.174c-0.389,0-2.552-0.049-3.18-0.094c-0.361-0.03-0.453-0.08-0.453-0.173
			c0-0.078,0.058-0.125,0.174-0.173c0.093-0.031,0.139-0.235,0.074-0.672l-0.937-6.897h-0.066l-3.413,7.115
			c-0.362,0.734-0.439,0.879-0.579,0.879c-0.143,0-0.297-0.315-0.55-0.784c-0.378-0.724-1.615-3.119-1.804-3.559
			c-0.139-0.325-1.084-2.302-1.63-3.478h-0.062l-0.814,6.235c-0.03,0.283-0.047,0.488-0.047,0.737c0,0.301,0.203,0.437,0.47,0.502
			c0.283,0.063,0.502,0.078,0.658,0.078c0.124,0,0.236,0.033,0.236,0.108c0,0.141-0.14,0.174-0.375,0.174
			c-0.662,0-1.366-0.049-1.647-0.049c-0.299,0-1.047,0.049-1.553,0.049c-0.154,0-0.28-0.033-0.28-0.174
			c0-0.075,0.094-0.108,0.25-0.108c0.125,0,0.237,0,0.47-0.048c0.439-0.096,0.562-0.704,0.645-1.234L47.241,22.25z"/>
		<path fill="#992838" d="M62.999,26.732c0-2.382,0-2.822-0.032-3.322c-0.03-0.53-0.156-0.782-0.672-0.889
			c-0.129-0.033-0.392-0.053-0.612-0.053c-0.17,0-0.267-0.028-0.267-0.138c0-0.111,0.11-0.142,0.345-0.142
			c0.424,0,0.875,0.014,1.272,0.014c0.407,0.017,0.765,0.032,0.985,0.032c0.501,0,3.617,0,3.92-0.016
			c0.293-0.03,0.544-0.06,0.671-0.093c0.078-0.017,0.172-0.063,0.248-0.063c0.081,0,0.099,0.063,0.099,0.14
			c0,0.11-0.082,0.296-0.129,1.02c-0.016,0.16-0.046,0.847-0.076,1.034c-0.016,0.079-0.05,0.174-0.158,0.174
			c-0.11,0-0.141-0.08-0.141-0.221c0-0.106-0.02-0.377-0.092-0.561c-0.114-0.285-0.27-0.473-1.052-0.567
			c-0.267-0.032-1.912-0.063-2.227-0.063c-0.076,0-0.106,0.045-0.106,0.157v3.966c0,0.106,0.012,0.172,0.106,0.172
			c0.347,0,2.15,0,2.508-0.033c0.375-0.032,0.607-0.078,0.754-0.232c0.108-0.129,0.171-0.206,0.249-0.206
			c0.063,0,0.108,0.032,0.108,0.126s-0.061,0.346-0.12,1.143c-0.019,0.313-0.066,0.942-0.066,1.052c0,0.125,0,0.296-0.141,0.296
			c-0.108,0-0.143-0.061-0.143-0.14c-0.012-0.156-0.012-0.358-0.06-0.564c-0.081-0.312-0.299-0.549-0.879-0.608
			c-0.299-0.035-1.851-0.051-2.224-0.051c-0.082,0-0.094,0.064-0.094,0.157v1.236c0,0.536-0.019,1.977,0,2.428
			c0.03,1.084,0.28,1.319,1.88,1.319c0.405,0,1.065,0,1.473-0.187c0.407-0.19,0.592-0.518,0.704-1.16
			c0.032-0.174,0.064-0.235,0.171-0.235c0.124,0,0.124,0.124,0.124,0.283c0,0.359-0.124,1.423-0.2,1.737
			c-0.106,0.407-0.253,0.407-0.847,0.407c-1.174,0-2.039-0.033-2.713-0.047c-0.672-0.033-1.153-0.049-1.627-0.049
			c-0.173,0-0.516,0-0.896,0.016c-0.358,0-0.767,0.033-1.081,0.033c-0.203,0-0.313-0.049-0.313-0.159
			c0-0.077,0.063-0.123,0.253-0.123c0.235,0,0.426-0.034,0.564-0.063c0.311-0.062,0.387-0.403,0.453-0.862
			c0.078-0.658,0.078-1.897,0.078-3.339V26.732z"/>
		<path fill="#992838" d="M91.7,26.732c0-2.382,0-2.822-0.032-3.322c-0.032-0.53-0.19-0.796-0.535-0.874
			c-0.171-0.048-0.373-0.067-0.562-0.067c-0.157,0-0.253-0.028-0.253-0.155c0-0.094,0.122-0.124,0.375-0.124
			c0.598,0,1.585,0.046,2.04,0.046c0.39,0,1.314-0.046,1.908-0.046c0.207,0,0.329,0.03,0.329,0.124c0,0.127-0.094,0.155-0.249,0.155
			c-0.156,0-0.282,0.02-0.471,0.053c-0.422,0.075-0.548,0.338-0.58,0.889c-0.03,0.5-0.03,0.94-0.03,3.322v2.757
			c0,1.521,0,2.761,0.063,3.435c0.048,0.425,0.156,0.705,0.628,0.767c0.217,0.028,0.56,0.063,0.798,0.063
			c0.177,0,0.253,0.046,0.253,0.123c0,0.11-0.124,0.159-0.299,0.159c-1.035,0-2.024-0.049-2.447-0.049
			c-0.357,0-1.345,0.049-1.973,0.049c-0.203,0-0.313-0.049-0.313-0.159c0-0.077,0.063-0.123,0.248-0.123
			c0.237,0,0.424-0.034,0.568-0.063c0.311-0.062,0.403-0.33,0.453-0.786c0.08-0.654,0.08-1.894,0.08-3.415V26.732z"/>
		<path fill="#992838" d="M99.358,22.25c0.045-0.265,0.139-0.408,0.266-0.408c0.126,0,0.221,0.079,0.423,0.488l4.279,8.836
			l4.26-8.947c0.127-0.247,0.207-0.377,0.346-0.377c0.142,0,0.236,0.158,0.284,0.488l1.425,9.684
			c0.139,0.986,0.299,1.444,0.767,1.581c0.453,0.142,0.771,0.157,0.973,0.157c0.143,0,0.251,0.016,0.251,0.108
			c0,0.125-0.188,0.174-0.409,0.174c-0.392,0-2.554-0.049-3.178-0.094c-0.363-0.03-0.458-0.08-0.458-0.173
			c0-0.078,0.063-0.125,0.175-0.173c0.092-0.031,0.139-0.235,0.078-0.672l-0.938-6.897h-0.066l-3.415,7.115
			c-0.359,0.734-0.439,0.879-0.578,0.879c-0.143,0-0.301-0.315-0.55-0.784c-0.375-0.724-1.615-3.119-1.802-3.559
			c-0.141-0.325-1.083-2.302-1.631-3.478h-0.061l-0.814,6.235c-0.03,0.283-0.048,0.488-0.048,0.737c0,0.301,0.204,0.437,0.468,0.502
			c0.284,0.063,0.501,0.078,0.662,0.078c0.122,0,0.232,0.033,0.232,0.108c0,0.141-0.137,0.174-0.375,0.174
			c-0.66,0-1.369-0.049-1.646-0.049c-0.299,0-1.052,0.049-1.555,0.049c-0.152,0-0.277-0.033-0.277-0.174
			c0-0.075,0.093-0.108,0.251-0.108c0.124,0,0.232,0,0.468-0.048c0.439-0.096,0.565-0.704,0.644-1.234L99.358,22.25z"/>
		<path fill="#992838" d="M115.117,26.732c0-2.382,0-2.822-0.03-3.322c-0.032-0.53-0.156-0.782-0.676-0.889
			c-0.123-0.033-0.394-0.053-0.612-0.053c-0.169,0-0.263-0.028-0.263-0.138c0-0.111,0.108-0.142,0.343-0.142
			c0.421,0,0.879,0.014,1.272,0.014c0.407,0.017,0.766,0.032,0.982,0.032c0.508,0,3.622,0,3.921-0.016
			c0.299-0.03,0.544-0.06,0.672-0.093c0.078-0.017,0.171-0.063,0.253-0.063c0.076,0,0.095,0.063,0.095,0.14
			c0,0.11-0.083,0.296-0.129,1.02c-0.014,0.16-0.048,0.847-0.078,1.034c-0.014,0.079-0.046,0.174-0.156,0.174
			c-0.112,0-0.145-0.08-0.145-0.221c0-0.106-0.013-0.377-0.091-0.561c-0.11-0.285-0.267-0.473-1.051-0.567
			c-0.263-0.032-1.912-0.063-2.224-0.063c-0.078,0-0.112,0.045-0.112,0.157v3.966c0,0.106,0.019,0.172,0.112,0.172
			c0.344,0,2.146,0,2.509-0.033c0.375-0.032,0.609-0.078,0.75-0.232c0.106-0.129,0.173-0.206,0.251-0.206
			c0.063,0,0.11,0.032,0.11,0.126s-0.063,0.346-0.125,1.143c-0.012,0.313-0.063,0.942-0.063,1.052c0,0.125,0,0.296-0.139,0.296
			c-0.11,0-0.141-0.061-0.141-0.14c-0.016-0.156-0.016-0.358-0.066-0.564c-0.078-0.312-0.295-0.549-0.874-0.608
			c-0.3-0.035-1.851-0.051-2.228-0.051c-0.078,0-0.097,0.064-0.097,0.157v1.236c0,0.536-0.012,1.977,0,2.428
			c0.034,1.084,0.281,1.319,1.883,1.319c0.407,0,1.069,0,1.475-0.187c0.407-0.19,0.596-0.518,0.706-1.16
			c0.025-0.174,0.06-0.235,0.168-0.235c0.125,0,0.125,0.124,0.125,0.283c0,0.359-0.125,1.423-0.201,1.737
			c-0.11,0.407-0.253,0.407-0.847,0.407c-1.176,0-2.04-0.033-2.713-0.047c-0.672-0.033-1.157-0.049-1.627-0.049
			c-0.17,0-0.516,0-0.893,0.016c-0.359,0-0.767,0.033-1.081,0.033c-0.205,0-0.313-0.049-0.313-0.159
			c0-0.077,0.061-0.123,0.247-0.123c0.234,0,0.425-0.034,0.567-0.063c0.312-0.062,0.39-0.403,0.454-0.862
			c0.078-0.658,0.078-1.897,0.078-3.339V26.732z"/>
	</g>
	<g>
		<path fill="#992838" d="M14.354,22.884c0-3.62,0-4.286-0.042-5.044c-0.053-0.812-0.241-1.192-1.025-1.356
			c-0.19-0.047-0.6-0.074-0.936-0.074c-0.255,0-0.4-0.048-0.4-0.213c0-0.168,0.166-0.214,0.527-0.214c1.258,0,2.757,0.07,3.425,0.07
			c0.975,0,2.354-0.07,3.449-0.07c2.978,0,4.049,0.997,4.43,1.356c0.521,0.501,1.189,1.573,1.189,2.83
			c0,3.379-2.478,5.758-5.856,5.758c-0.118,0-0.381,0-0.497-0.021c-0.118-0.024-0.287-0.048-0.287-0.213
			c0-0.19,0.169-0.263,0.666-0.263c1.33,0,3.188-1.503,3.188-3.931c0-0.783-0.07-2.376-1.407-3.568
			c-0.853-0.78-1.829-0.924-2.375-0.924c-0.359,0-0.715,0.021-0.929,0.093c-0.114,0.051-0.193,0.187-0.193,0.454v9.516
			c0,2.189,0,4.07,0.123,5.094c0.07,0.67,0.213,1.191,0.927,1.285c0.335,0.049,0.856,0.097,1.214,0.097
			c0.263,0,0.381,0.07,0.381,0.189c0,0.168-0.19,0.236-0.453,0.236c-1.573,0-3.069-0.068-3.689-0.068
			c-0.548,0-2.047,0.068-2.998,0.068c-0.307,0-0.478-0.068-0.478-0.236c0-0.119,0.099-0.189,0.38-0.189
			c0.36,0,0.646-0.048,0.856-0.097c0.479-0.094,0.596-0.615,0.694-1.311c0.116-0.998,0.116-2.879,0.116-5.068V22.884z"/>
	</g>
	<g>
		<path fill="#992838" d="M79.768,17.316l-3.543,0.094c-1.381,0.045-1.948,0.163-2.31,0.688c-0.239,0.356-0.357,0.645-0.403,0.834
			c-0.046,0.191-0.123,0.285-0.263,0.285c-0.169,0-0.217-0.117-0.217-0.38c0-0.383,0.457-2.547,0.501-2.736
			c0.07-0.31,0.143-0.455,0.287-0.455c0.19,0,0.428,0.239,1.023,0.288c0.69,0.072,1.593,0.119,2.378,0.119h9.424
			c0.767,0,1.288-0.07,1.646-0.119c0.356-0.072,0.547-0.119,0.64-0.119c0.171,0,0.192,0.144,0.192,0.5
			c0,0.503-0.072,2.14-0.072,2.762c-0.023,0.238-0.072,0.379-0.213,0.379c-0.19,0-0.242-0.118-0.263-0.477l-0.027-0.264
			c-0.045-0.617-0.688-1.284-2.806-1.33l-2.995-0.069v9.754c0,2.189,0,4.07,0.116,5.094c0.074,0.67,0.215,1.191,0.929,1.285
			c0.331,0.049,0.857,0.097,1.214,0.097c0.259,0,0.382,0.07,0.382,0.189c0,0.168-0.193,0.236-0.454,0.236
			c-1.57,0-3.071-0.068-3.733-0.068c-0.552,0-2.049,0.068-3.002,0.068c-0.309,0-0.478-0.068-0.478-0.236
			c0-0.119,0.099-0.189,0.384-0.189c0.356,0,0.64-0.048,0.856-0.097c0.474-0.094,0.616-0.615,0.692-1.311
			c0.114-0.998,0.114-2.879,0.114-5.068V17.316z"/>
	</g>
</g>
</svg>
