<?xml version="1.0" encoding="utf-8"?>
<!-- Generator: Adobe Illustrator 16.0.0, SVG Export Plug-In . SVG Version: 6.00 Build 0)  -->
<!DOCTYPE svg PUBLIC "-//W3C//DTD SVG 1.1//EN" "http://www.w3.org/Graphics/SVG/1.1/DTD/svg11.dtd">
<svg version="1.1" id="Layer_1" xmlns="http://www.w3.org/2000/svg" xmlns:xlink="http://www.w3.org/1999/xlink" x="0px" y="0px"
	 width="192.929px" height="83.838px" viewBox="0 0 192.929 83.838" enable-background="new 0 0 192.929 83.838"
	 xml:space="preserve">
<path fill-rule="evenodd" clip-rule="evenodd" fill="#B39363" d="M33.603,15.127c0.6,0.006,2.123,0.018,2.522,0
	c0.01,0.147,0.274,0.032,0.391,0.064c6.842,0.507,11.563,3.131,15.514,6.528c0.124,0.18,0.276,0.334,0.447,0.453
	c0.309,0.253,0.594,0.536,0.841,0.843c0.126,0.176,0.274,0.323,0.457,0.451c3.154,3.611,5.592,7.937,6.396,13.896
	c0.036,0.095-0.074,0.34,0.066,0.325c0,0.087,0,0.179,0,0.261c0.034,0.095-0.068,0.333,0.066,0.317c0,0.13,0,0.265,0,0.387
	c0.036,0.101-0.074,0.341,0.063,0.325c-0.058,0.156,0.039,0.636,0,0.976c0,0.475,0,0.947,0,1.418c0,0.256,0,0.518,0,0.775
	c-0.144,0.03-0.021,0.32-0.063,0.454c-0.532,6.48-3.012,11.038-6.208,14.866c-0.128,0.083-0.245,0.187-0.321,0.326
	c-0.09,0.189-0.299,0.263-0.389,0.45c-0.35,0.3-0.675,0.62-0.97,0.975c-0.166,0.061-0.217,0.252-0.387,0.315
	c-0.139,0.08-0.245,0.191-0.323,0.331c-3.796,3.165-8.309,5.612-14.679,6.198c-0.133,0.044-0.419-0.076-0.447,0.059
	c-0.217,0-0.436,0-0.648,0c-0.219,0.049-0.6-0.078-0.71,0.072c-0.021,0-0.04,0-0.064,0c-0.323-0.15-0.929-0.021-1.362-0.072
	c-0.238,0-0.472,0-0.71,0c0.012-0.134-0.229-0.021-0.323-0.059c-7.596-0.72-12.698-3.94-16.741-8.2
	c-0.084-0.137-0.19-0.248-0.325-0.333c-3.238-3.87-5.75-8.467-6.273-15.063c-0.038-0.17,0.088-0.512-0.063-0.578
	c0-0.839,0-1.685,0-2.521c0.15-0.046,0.024-0.36,0.063-0.518c0-0.151,0-0.3,0-0.454c0.138,0.018,0.032-0.226,0.065-0.323
	c0.694-6.41,3.269-10.956,6.596-14.735c0.521-0.468,1.015-0.961,1.488-1.484c3.975-3.478,8.744-6.164,15.708-6.661
	C33.376,15.159,33.612,15.274,33.603,15.127z M39.036,19.461c-0.175,0-0.35,0-0.522,0c-0.11,0.034-0.377-0.083-0.385,0.061
	c-3.4,0.306-6.274,1.14-8.663,2.458c6.492,0.36,10.942,3.331,14.873,6.467c2.508-1.902,5.12-3.709,7.761-5.493
	c-2.671-1.748-5.727-3.117-9.834-3.432c0.013-0.142-0.229-0.026-0.322-0.061c-0.175,0-0.346,0-0.516,0
	c-0.155-0.155-0.584-0.027-0.843-0.063c-0.213,0-0.432,0-0.645,0C39.653,19.434,39.208,19.306,39.036,19.461z M56.036,33.751
	c-0.227-4.344-1.644-7.499-3.427-10.284c-1.838,2.513-3.571,5.138-5.43,7.63c-0.064,0-0.078,0.054-0.128,0.063
	c-0.015,0.161,0.098,0.204,0.194,0.263c2.987,3.691,5.584,7.769,6.266,13.763c0.042,0.11-0.074,0.38,0.07,0.39
	c0.042,0.15-0.084,0.466,0.059,0.516c1.186-2.677,2.263-5.798,2.396-9.309c0.148-0.01,0.027-0.274,0.066-0.385
	c0-0.758,0-1.509,0-2.266C56.063,34.021,56.185,33.755,56.036,33.751z M25.33,25.726c-3.22,0.298-4.974,2.054-5.367,5.176
	c-0.139-0.013-0.034,0.229-0.06,0.326c0,0.451,0,0.901,0,1.355c0.036,0.109-0.081,0.379,0.06,0.388
	c0.799,5.532,3.417,9.252,6.396,12.604c0.909-1.205,1.956-2.271,2.913-3.429c0.131-0.082,0.243-0.191,0.327-0.317
	c0.087-0.197,0.297-0.264,0.386-0.458c0.176-0.123,0.331-0.275,0.447-0.449c0.112-0.213,0.345-0.309,0.453-0.52
	c0.285-0.23,0.548-0.489,0.78-0.775c0.787-0.847,1.607-1.663,2.452-2.454c0.285-0.232,0.552-0.493,0.78-0.775
	c0.209-0.111,0.306-0.34,0.516-0.452c0.179-0.122,0.331-0.278,0.454-0.457c0.19-0.088,0.257-0.297,0.455-0.385
	c0.128-0.08,0.236-0.19,0.317-0.324c0.156-0.044,0.17-0.215,0.322-0.258c0.141-0.081,0.245-0.188,0.327-0.328
	c0.131-0.014,0.129-0.171,0.259-0.191c0.133-0.078,0.239-0.189,0.321-0.321c0.668-0.537,1.334-1.078,1.944-1.686
	c-3.577-2.774-7.129-5.584-12.801-6.27c-0.03-0.137-0.327-0.021-0.453-0.061c-0.306,0-0.606,0-0.907,0
	C25.555,25.697,25.318,25.589,25.33,25.726z M16.147,35.551c-0.028-0.084,0.078-0.333-0.064-0.322
	c-1.02,2.36-1.938,4.83-2.264,7.891c-0.139-0.009-0.03,0.223-0.064,0.318c-0.008,0.403-0.13,0.972-0.062,1.231
	c-0.145,0.031-0.03,0.32-0.068,0.45c0,0.606,0,1.209,0,1.813c0.044,0.174-0.076,0.507,0.068,0.583
	c0.234,4.201,1.617,7.692,3.555,10.404c1.729-2.691,3.594-5.238,5.426-7.821c-3.084-3.781-5.801-7.938-6.459-14.152
	C16.175,35.827,16.287,35.563,16.147,35.551z M49.764,48.158c-0.776-5.426-3.477-8.932-6.205-12.416
	c-0.865,0.736-1.507,1.691-2.262,2.523c-0.132,0.087-0.245,0.195-0.321,0.327c-0.072,0.168-0.259,0.221-0.322,0.385
	c-0.139,0.078-0.245,0.186-0.323,0.33c-0.095,0.189-0.301,0.261-0.39,0.448c-0.177,0.124-0.323,0.275-0.455,0.448
	c-0.139,0.24-0.388,0.355-0.52,0.586c-0.35,0.292-0.668,0.625-0.963,0.97c-0.559,0.608-1.142,1.191-1.748,1.744
	c-0.329,0.275-0.632,0.576-0.909,0.906c-0.229,0.136-0.347,0.385-0.575,0.521c-0.203,0.14-0.373,0.316-0.521,0.516
	c-0.167,0.068-0.213,0.257-0.386,0.322c-0.154,0.102-0.287,0.231-0.392,0.387c-0.148,0.044-0.174,0.219-0.318,0.259
	c-0.143,0.081-0.245,0.188-0.325,0.319c-0.483,0.43-0.929,0.749-1.489,1.231c-0.078,0.066-1.428,1.16-1.42,1.293
	c0.004,0.126,1.009,0.812,1.292,1.035c3.152,2.524,7.424,5.077,12.089,5.301c0.09,0.106,0.619,0.106,0.718,0
	c3.234-0.098,5.361-1.877,5.746-5.048c0.143,0.014,0.03-0.221,0.064-0.32c0-0.171,0-0.342,0-0.513c0.114-0.091,0.114-0.624,0-0.713
	c0-0.17,0-0.346,0-0.519C49.794,48.386,49.906,48.149,49.764,48.158z M39.229,59.276c-5.987-0.756-10.135-3.354-13.77-6.461
	c-2.557,1.906-5.283,3.637-7.823,5.556c2.769,1.738,5.847,3.161,10.088,3.425c0.006,0.146,0.27,0.029,0.388,0.07
	c0.236,0,0.474,0,0.71,0c0.217,0.106,0.879,0.106,1.098,0c0.188,0.084,0.611-0.063,0.967,0c0.118-0.041,0.384,0.076,0.392-0.07
	c3.567-0.248,6.488-1.142,8.986-2.457c-0.217,0-0.436,0-0.646,0C39.609,59.2,39.341,59.314,39.229,59.276z"/>
<g>
	<path fill="#992838" d="M75.183,15.612c0.139-0.111,0.382-0.173,0.73-0.173c0.236,0,0.432,0.038,0.584,0.112
		c0.156,0.082,0.403,0.248,0.736,0.501c0.521,0.427,0.803,0.679,0.828,0.745c0.032,0.068,0.201,0.191,0.47,0.551
		c0.247,0.335,0.516,0.957,0.702,1.314c0.183,0.364,0.315,0.552,0.396,0.573c0.095,0.036,0.309-0.016,0.645-0.16
		c0.324-0.148,0.726-0.242,0.845-0.253c0.112-0.004,0.389-0.082,0.992,0.032c0.603,0.116,0.941,0.236,1.023,0.351
		c0.095,0.139,0.521,0.304,0.643,0.499c0.116,0.193,0.177,0.419,0.177,0.669c0,0.235-0.049,0.422-0.135,0.57
		c-0.089,0.145-0.295,0.396-0.628,0.744c-0.604,0.664-0.989,1.108-1.154,1.347c-0.166,0.232-0.269,0.466-0.307,0.7
		c-0.056,0.426,0.175,1.07,0.7,1.925c0.078,0.116,0.241,0.45,0.481,0.996c0.245,0.545,0.397,0.906,0.458,1.082
		c0.034,0.113,0.114,0.197,0.229,0.248c0.114,0.05,0.225,0.051,0.323,0.015c0.092-0.04,0.148-0.118,0.148-0.234
		c0-0.174,0.078-0.421,0.23-0.732c0.546-1.071,0.778-1.782,0.702-2.131c-0.038-0.233-0.006-0.359,0.101-0.38
		c0.106-0.019,0.327,0.048,0.66,0.206c0.565,0.269,0.839,0.786,0.82,1.547c-0.022,0.411-0.219,1.713-0.588,3.914l-0.207,1.256
		l0.382,0.701c0.489,0.932,1.258,2.076,2.31,3.433c1.049,1.354,1.681,2.03,1.897,2.03c0.097,0,0.148-0.041,0.148-0.116
		c-0.02-0.097-0.118-0.506-0.293-1.228c-0.257-0.896-0.335-1.354-0.236-1.373c0.058-0.017,0.185,0.137,0.381,0.469
		c0.038,0.075,0.097,0.161,0.175,0.261c0.525,0.916,1.149,1.774,1.874,2.572c0.307,0.331,0.552,0.741,0.729,1.242
		c0.172,0.497,0.343,0.895,0.509,1.195c0.169,0.3,0.249,0.704,0.249,1.21c0,0.432-0.058,0.705-0.177,0.821
		c-0.116,0.118-0.371,0.174-0.758,0.174c-0.215,0-0.401-0.048-0.552-0.157c-0.161-0.113-0.441-0.376-0.849-0.803
		c-0.606-0.645-0.909-1.005-0.909-1.083s-0.367-0.513-1.109-1.315c-0.774-0.835-1.916-2.28-3.417-4.323
		c-0.311-0.446-0.493-0.728-0.544-0.846c-0.046-0.119-0.148-0.179-0.305-0.179c-0.097,0-0.158,0.044-0.19,0.121
		c-0.028,0.077-0.044,0.251-0.044,0.524c0,0.429,0.042,0.855,0.118,1.283c0.058,0.295,0.068,0.508,0.03,0.645
		c-0.04,0.137-0.195,0.399-0.466,0.789c-0.371,0.542-0.556,0.844-0.556,0.901c0,0.061,0.13,0.154,0.396,0.283
		c0.261,0.127,0.483,0.129,0.626,0.188c0.269,0.113,0.545,0.214,1.041,0.339c0.518,0.12,0.937,0.259,1.262,0.376
		c0.523,0.185,0.612,0.378,0.658,0.415c0.104,0.081,0.127,0.183,0.223,0.359c0.097,0.172,0.064,0.332-0.101,0.468
		c-0.168,0.136-0.176,0.266-0.252,0.366c-0.055,0.086-0.127,0.268-0.201,0.268c-0.078,0-0.487,0.008-0.877-0.053
		c-0.391-0.055-0.758-0.139-1.111-0.246c-0.354-0.105-1.119-0.171-2.31-0.191c-1.186-0.018-2.055,0.072-2.6,0.266
		c-1.441,0.487-4.1,0.749-7.978,0.785c-1.242,0.027-1.868-0.073-1.868-0.288c0-0.08,0.331-0.227,0.993-0.44
		c1.149-0.347,1.862-0.651,2.137-0.904c0.032-0.041,0.084-0.458,0.143-1.257c0.158-2.356,0.274-3.532,0.352-3.532
		c0.02,0,0.065,0.045,0.148,0.143c0.152,0.179,0.232,0.366,0.232,0.571c0,0.202,0.293,0.686,0.481,1.213
		c0.185,0.528,0.388,1.003,0.596,1.432c0.158,0.294,0.271,0.465,0.337,0.524c0.068,0.056,0.173,0.064,0.31,0.032
		c0.586-0.14,0.887-0.285,0.904-0.444c0-0.093,0.022-0.571,0.061-1.43c0.04-0.855-0.016-1.403-0.162-1.648
		c-0.145-0.247-0.268-0.366-0.365-0.366c-0.093,0-0.201-0.064-0.308-0.191c-0.108-0.126-0.287-0.246-0.539-0.368l-0.382-0.139
		l0.791-0.527c0.604-0.368,0.969-0.625,1.095-0.759c0.125-0.138,0.153-0.325,0.072-0.56c-0.058-0.25-0.086-0.903-0.086-1.951
		c0-1.364-0.101-2.101-0.291-2.209c-0.196-0.105-0.686,0.341-1.463,1.33c-0.411,0.546-0.689,0.889-0.849,1.021
		c-0.156,0.138-0.303,0.186-0.435,0.149c-0.103-0.023-0.167-0.006-0.207,0.041c-0.042,0.048-0.08,0.172-0.116,0.367
		c-0.036,0.289-0.169,0.72-0.384,1.283c-0.194,0.548-0.438,1.287-0.742,2.222c-0.301,0.935-0.455,1.45-0.455,1.546
		c0,0.099-0.101,0.361-0.303,0.792c-0.207,0.425-0.363,0.699-0.468,0.818c-0.108,0.116-0.275,0.248-0.496,0.395
		c-0.225,0.144-0.447,0.168-0.662,0.072c-0.19-0.117-0.389-0.305-0.596-0.56c-0.204-0.249-0.354-0.523-0.451-0.815
		c-0.08-0.253-0.104-0.708-0.076-1.359c0.032-0.648,0.094-1.035,0.188-1.157c0.061-0.093,0.447-1.142,0.56-1.601
		c0.129-0.53,0.456-2.146,0.554-2.689c0.093-0.544,0.199-1.499,0.219-2.081c0.024-0.589,0.019-1.074-0.032-1.481
		c-0.048-0.41-0.08-0.809-0.1-1.197c-0.019-0.391-0.667-2.558-0.833-2.995c-0.167-0.439-0.232-0.668-0.207-0.701
		c0.034-0.025,0.271,0.022,0.719,0.163c0.447,0.133,0.82,0.232,1.121,0.29c0.308,0.06,0.538,0.169,0.705,0.337
		c0.166,0.167,0.507,0.44,1.021,0.83c0.518,0.389,0.776,0.688,0.776,0.892c0,0.205,0.291,1.787,0.35,2.119
		c0.038,0.271,0.106,0.444,0.204,0.51c0.101,0.068,0.235,0.057,0.41-0.041c0.174-0.099,0.409-0.303,0.7-0.616
		c0.569-0.604,1.123-1.291,1.667-2.071c0.546-0.779,0.826-1.31,0.849-1.579c0.059-0.368,0.008-0.555-0.148-0.555
		c-0.177,0.018-0.769,0.292-1.781,0.816c-0.367,0.193-0.848,0.317-1.445,0.363c-0.598,0.051-0.951,0.097-1.069,0.137
		c-0.052,0.016-0.104,0.008-0.145-0.033c-0.04-0.038-0.066-0.117-0.086-0.229c-0.022-0.197,0.106-0.373,0.373-0.528
		c0.295-0.176,0.822-0.584,1.585-1.229c0.192-0.152,0.325-0.231,0.394-0.231c0.07,0,0.257-0.187,0.569-0.556
		c0.193-0.236,0.321-0.425,0.382-0.567c0.058-0.146,0.086-0.355,0.086-0.629c0-0.431-0.082-0.73-0.251-0.908
		c-0.164-0.178-0.353-0.472-0.569-0.889c-0.215-0.422-0.388-0.686-0.508-0.788c-0.131-0.108-0.313-0.544-0.542-0.603
		c-0.234-0.056-0.401-0.097-0.499-0.115c-0.112-0.039-0.165-0.194-0.145-0.466C74.998,15.865,75.064,15.692,75.183,15.612z
		 M79.829,27.593c0-0.214-0.04-0.323-0.116-0.323c-0.194,0.018-0.443,0.113-0.746,0.275c-0.301,0.168-0.54,0.347-0.714,0.542
		l-0.407,0.436l0.29,0.618c0.327,0.64,0.622,0.917,0.875,0.817c0.101-0.038,0.259-0.379,0.483-1.025
		C79.715,28.291,79.829,27.847,79.829,27.593z M79.804,35.274c-0.08-0.096-0.152-0.141-0.223-0.133
		c-0.068,0.01-0.229,0.073-0.481,0.19l-0.405,0.207v1.339c0,0.878-0.028,1.445-0.076,1.71c-0.049,0.263-0.013,0.393,0.102,0.393
		c0.428,0,0.769-0.253,1.025-0.758c0.251-0.504,0.337-1.127,0.261-1.867C79.944,35.732,79.88,35.37,79.804,35.274z M81.878,28.031
		c-0.156-0.253-0.278-0.413-0.367-0.469c-0.086-0.062-0.16-0.04-0.219,0.056c-0.058,0.101-0.108,0.291-0.146,0.585
		c-0.058,0.331-0.23,0.924-0.525,1.784c-0.392,1.127-0.624,2.004-0.7,2.628c-0.022,0.077,0.006,0.131,0.086,0.161
		c0.076,0.026,0.203,0.053,0.38,0.072c0.834,0.021,1.412-0.165,1.725-0.555c0.542-0.683,0.815-1.197,0.815-1.551
		c0.023-0.154-0.036-0.42-0.171-0.801c-0.141-0.381-0.267-0.668-0.381-0.861C82.26,28.925,82.093,28.36,81.878,28.031z
		 M82.488,35.683c-0.15-0.06-0.384-0.079-0.687-0.06c-0.301,0.019-0.52,0.07-0.656,0.145c-0.118,0.08-0.181,0.197-0.19,0.353
		c-0.01,0.158,0.055,0.525,0.19,1.108c0.156,0.706,0.273,1.129,0.352,1.286c0.078,0.159,0.225,0.234,0.441,0.234
		c0.172,0,0.285-0.046,0.329-0.134c0.052-0.085,0.124-0.344,0.221-0.772C82.781,36.521,82.781,35.8,82.488,35.683z M83.655,16.52
		c0.219-0.1,0.552-0.146,1.01-0.146c0.459,0,0.756,0.039,0.889,0.115c1.326,0.779,1.988,1.444,1.988,1.988
		c0,0.138-0.192,0.292-0.582,0.468c-0.391,0.175-0.613,0.276-0.672,0.307c-0.059,0.029-0.352-0.175-0.879-0.612
		c-0.523-0.442-1.011-0.822-1.456-1.155c-0.355-0.254-0.552-0.452-0.603-0.599C83.305,16.741,83.403,16.614,83.655,16.52z"/>
	<path fill="#992838" d="M115.589,16.813c0.193-0.175,0.392-0.254,0.597-0.237c0.206,0.02,0.548,0.16,1.039,0.408
		c0.544,0.294,0.869,0.51,0.965,0.646c0.095,0.134,0.104,0.371,0.024,0.702c-0.112,0.387-0.271,1.132-0.466,2.232
		c-0.194,1.099-0.321,1.879-0.379,2.322l-0.089,0.762l1.14-0.059c0.526-0.043,0.865-0.053,1.021-0.031
		c0.156,0.022,0.354,0.105,0.584,0.261c0.312,0.218,0.516,0.323,0.614,0.323c0.158,0,0.253,0.183,0.295,0.555
		c0.04,0.374-0.01,0.574-0.148,0.617c-0.116,0.015-0.721,0.027-1.814,0.027c-1.087,0-1.657,0.023-1.707,0.072
		c-0.046,0.048-0.141,0.402-0.274,1.063c-0.175,0.841-0.249,2.273-0.219,4.296c0.025,2.025,0.148,3.436,0.364,4.235
		c0.41,1.715,0.612,3.156,0.612,4.325c0,0.563-0.026,0.929-0.07,1.097c-0.05,0.164-0.181,0.412-0.397,0.743
		c-0.309,0.446-0.525,0.669-0.642,0.669c-0.192,0-0.449-0.096-0.761-0.29c-0.313-0.194-0.535-0.387-0.672-0.585
		c-0.192-0.269-0.634-0.771-1.328-1.488c-0.69-0.723-1.035-1.147-1.035-1.284s-0.313-0.664-0.938-1.577
		c-0.619-0.914-1.104-1.881-1.428-2.892l-0.526-1.49l0.259-0.295c0.197-0.191,0.526-0.411,0.997-0.644
		c0.291-0.17,0.512-0.275,0.671-0.304c0.158-0.027,0.347-0.024,0.586,0.016c0.328,0.058,0.655,0.173,0.975,0.35
		c0.321,0.171,0.552,0.371,0.688,0.582c0.098,0.115,0.143,0.218,0.13,0.295c-0.01,0.076-0.07,0.204-0.19,0.379
		c-0.114,0.192-0.209,0.309-0.272,0.336c-0.072,0.028-0.193,0.033-0.371,0.013c-1.168-0.21-1.967-0.262-2.392-0.144
		c-0.175,0.039-0.273,0.086-0.295,0.144c-0.019,0.058-0.009,0.224,0.034,0.499c0.154,1.268,0.98,2.531,2.481,3.8
		c0.835,0.697,1.515,1.106,2.044,1.226c0.195,0.06,0.315,0.066,0.365,0.026c0.047-0.036,0.115-0.177,0.191-0.408
		c0.094-0.332,0.076-1.275-0.059-2.832c-0.141-1.424-0.219-2.556-0.236-3.404c-0.021-0.848,0.008-2.058,0.088-3.639
		c0.038-1.09,0.052-1.77,0.044-2.042c-0.01-0.277-0.064-0.413-0.16-0.413c-0.116,0-0.199,0.041-0.249,0.12
		c-0.048,0.076-0.229,0.164-0.538,0.265c-0.373,0.137-1.555,0.693-3.551,1.675c-1.998,0.987-3.13,1.577-3.405,1.771
		c-0.311,0.234-0.523,0.497-0.642,0.79c-0.118,0.292-0.194,0.759-0.232,1.401c-0.022,0.602-0.106,1.108-0.264,1.516
		c-0.525,1.29-0.885,2.064-1.079,2.338c-0.118,0.196-0.314,0.343-0.586,0.439c-0.272,0.096-0.537,0.118-0.784,0.06
		c-0.221-0.04-0.478-0.216-0.778-0.527c-0.301-0.31-0.558-0.672-0.776-1.077c-0.229-0.452-0.58-0.819-1.048-1.117
		c-0.409-0.249-0.676-0.385-0.788-0.407c-0.121-0.016-0.207,0.071-0.265,0.267c-0.061,0.193-0.167,0.395-0.321,0.601
		c-0.159,0.203-0.293,0.586-0.409,1.151c-0.139,0.699-0.338,1.215-0.601,1.547c-0.263,0.331-0.649,0.567-1.153,0.702
		c-0.331,0.1-0.786-0.206-1.374-0.907c-0.155-0.195-0.247-0.366-0.277-0.524c-0.026-0.153-0.024-0.613,0.017-1.371
		c0.018-0.663,0.05-1.118,0.088-1.376c0.038-0.251,0.128-0.514,0.261-0.787c0.217-0.411,0.354-0.819,0.409-1.239
		c0.059-0.419,0.127-0.699,0.205-0.835c0.139-0.27,0.242-0.933,0.322-1.985c0.079-1.053,0.079-1.853,0-2.397
		c-0.08-0.392-0.058-0.583,0.055-0.583c0.158,0,0.377,0.115,0.664,0.353c0.279,0.23,0.487,0.455,0.624,0.672
		c0.175,0.271,0.392,0.61,0.644,1.023c0.233,0.388,0.464,0.766,0.703,1.134l0.347,0.556l0.409-0.231
		c0.273-0.156,0.769-0.456,1.489-0.895c0.722-0.437,1.26-0.675,1.612-0.711c0.249-0.021,0.45,0,0.597,0.058
		c0.146,0.06,0.411,0.236,0.8,0.525l0.852,0.674l0.702-0.237c0.463-0.154,1.633-0.704,3.503-1.647
		c1.868-0.948,3.178-1.565,3.929-1.857c0.748-0.293,1.182-0.494,1.3-0.597c0.114-0.109,0.198-1.14,0.23-3.081l0.064-2.897
		l-0.472-0.522l-0.438-0.526L115.589,16.813z M104.633,29.099c-0.034-0.107-0.121-0.098-0.386-0.098
		c-0.188,0-0.68,0.229-1.621,0.862c-0.915,0.615-1.147,1.335-1.147,1.488c0,0.111,0.403-0.13,1.294-0.563
		C104.205,30.085,104.863,29.899,104.633,29.099z"/>
	<path fill="#992838" d="M137.76,15.291c0.133-0.096,0.367-0.149,0.698-0.16c0.333-0.007,0.66,0.028,0.995,0.104
		c0.487,0.133,1.021,0.756,1.607,1.868c0.291,0.527,0.56,0.855,0.807,0.994c0.24,0.133,0.478,0.31,0.71,0.525
		c0.215,0.213,0.297,0.38,0.232,0.512c-0.056,0.127-0.271,0.238-0.64,0.335c-0.719,0.193-1.21,0.535-1.461,1.021
		c-0.096,0.197-0.143,0.32-0.132,0.378c0.01,0.06,0.114,0.151,0.309,0.266c0.175,0.14,0.58,0.515,1.212,1.142
		c0.632,0.623,0.949,0.953,0.949,0.991c0,0.036-0.205,0.166-0.616,0.382c-0.329,0.171-0.704,0.488-1.123,0.947
		c-0.42,0.458-0.627,0.793-0.627,1.006c0,0.099,0.037,0.159,0.099,0.174c0.068,0.023,0.233,0.031,0.485,0.031
		c0.428-0.015,0.757,0.026,0.993,0.135c0.235,0.104,0.564,0.355,0.993,0.745l0.757,0.699l-0.321,0.465
		c-0.211,0.313-0.367,0.466-0.465,0.466c-0.139,0-0.376,0.215-0.736,0.526c-0.357,0.31-0.534,0.536-0.841,0.852
		c-0.312,0.32-1.465,1.498-1.766,1.847c-0.302,0.353-1.027,1.387-1.187,1.657c-0.116,0.193-0.234,0.573-0.349,1.139
		c-0.118,0.566-0.19,1.058-0.221,1.478c-0.028,0.419-0.006,0.664,0.074,0.746c0.074,0,0.497-0.382,1.272-1.139
		c0.766-0.761,1.442-1.347,2.026-1.758c0.893-0.586,1.524-1.082,1.886-1.503c0.361-0.418,0.626-0.96,0.805-1.621
		c0.098-0.351,0.236-0.642,0.423-0.878c0.185-0.232,0.365-0.347,0.54-0.347s0.434,0.158,0.774,0.479
		c0.341,0.318,0.608,0.648,0.803,0.978c0.215,0.354,0.341,0.809,0.381,1.374l0.087,0.846l-1.168,1.05
		c-0.759,0.725-1.373,1.201-1.84,1.436c-0.683,0.329-1.023,0.632-1.023,0.903c0,0.078,0.205,0.232,0.614,0.454
		c0.409,0.227,0.689,0.337,0.845,0.337c0.102,0,0.646,0.204,1.641,0.613c0.637,0.272,1.096,0.492,1.368,0.658
		c0.273,0.164,0.603,0.444,0.995,0.832c1.088,1.051,1.638,1.957,1.638,2.715v0.525l-0.381-0.057
		c-0.47-0.101-0.917-0.289-1.345-0.566c-0.428-0.285-1.073-0.828-1.93-1.626c-1.208-1.069-1.908-1.675-2.102-1.812
		c-0.194-0.137-0.505-0.404-0.933-0.818l-0.644-0.611l-0.15,0.293c-0.113,0.192-0.163,0.43-0.143,0.699
		c0.018,0.232-0.028,0.435-0.145,0.597c-0.121,0.165-0.632,0.729-1.551,1.684c-0.58,0.602-1.128,1.104-1.636,1.505
		c-0.504,0.398-0.925,0.663-1.256,0.787c-0.331,0.126-0.554,0.108-0.672-0.043c-0.038-0.081-0.188-0.147-0.436-0.206
		c-0.232-0.059-0.426-0.182-0.572-0.376c-0.146-0.198-0.288-0.531-0.423-0.998c-0.16-0.506-0.199-1.065-0.114-1.676
		c0.078-0.613,0.15-0.99,0.23-1.127c0.036-0.096,0.082-0.358,0.133-0.773c0.05-0.418,0.078-0.793,0.086-1.125
		c0.01-0.332-0.012-0.527-0.076-0.584c-0.074,0-0.265,0.225-0.565,0.673c-0.304,0.446-0.631,0.662-0.815,0.86
		c-0.271,0.276-0.724,0.796-1.085,1.065c-0.359,0.273-1.395,1.143-1.912,1.462c-0.672,0.41-0.858,0.104-1.109-0.031
		c-0.197-0.094-0.308-0.192-0.337-0.292c-0.028-0.095-0.045-0.353-0.045-0.756c0-0.369,0.021-0.635,0.059-0.792
		c0.038-0.153,0.095-0.402,0.323-0.609c0.096-0.094,1.077-0.49,1.635-0.881c0.022-0.016,0.323-0.271,0.907-0.874
		c0.582-0.604,1.17-1.242,1.764-1.914c0.598-0.67,0.923-1.064,0.98-1.181c0.059-0.101,0.101-0.225,0.131-0.383
		c0.03-0.156,0.044-0.294,0.044-0.41c0-0.114-0.02-0.174-0.056-0.174c-0.042,0-0.538,0.229-1.491,0.687
		c-0.953,0.459-1.528,0.649-1.707,0.688c-0.213,0.043-0.666,0.323-0.736,0.323c-0.066,0-0.188-0.051-0.361-0.15
		c-0.468-0.249-0.738-0.787-0.82-1.604c-0.038-0.471,0.012-0.797,0.148-0.979c0.134-0.184,0.465-0.353,0.995-0.511
		c0.562-0.194,1.167-0.492,1.808-0.893c0.642-0.398,1.189-0.82,1.635-1.269c0.43-0.451,0.656-0.761,0.677-0.938
		c0.018-0.177-0.161-0.354-0.528-0.524c-0.331-0.174-0.809-0.246-1.431-0.206c-0.644,0.021-1.113-0.004-1.406-0.071
		c-0.289-0.071-0.483-0.191-0.58-0.363c-0.116-0.199-0.092-0.441,0.072-0.732c0.167-0.294,0.275-0.438,0.319-0.438
		c0.05,0,0.407-0.231,1.081-0.703c0.673-0.463,1.413-0.843,2.222-1.14c0.807-0.29,1.27-0.477,1.387-0.553
		c0.04-0.195-0.117-0.312-0.464-0.35c-0.333,0-0.636-0.059-0.909-0.178c-0.272-0.115-0.74-0.306-1.4-0.567
		c-0.664-0.263-1.14-0.515-1.435-0.75c-0.194-0.153-0.299-0.263-0.319-0.332c-0.02-0.068,0.021-0.218,0.117-0.456
		c0.078-0.21,0.192-0.36,0.335-0.45c0.148-0.085,0.544-0.227,1.186-0.422c0.913-0.292,1.655-0.594,2.217-0.904l0.849-0.469
		l-0.058-0.851C137.505,15.757,137.583,15.409,137.76,15.291z M137.525,24.99c-0.021-0.155-0.135-0.232-0.352-0.232
		c-0.175-0.021-0.6,0.048-1.27,0.203c-0.673,0.155-1.052,0.275-1.126,0.354c-0.061,0.057,0.03,0.116,0.263,0.174
		c0.47,0.134,0.976,0.201,1.519,0.201c0.312,0,0.563-0.063,0.745-0.186C137.493,25.376,137.563,25.206,137.525,24.99z
		 M141.793,35.827c0-0.23-0.227-0.224-0.675,0.03c-0.058,0.042-1.123,0.558-1.561,0.788c-0.443,0.232-0.678,0.39-0.717,0.471
		c-0.038,0.112-0.14,0.133-0.295,0.057c-0.154-0.077-0.282-0.117-0.377-0.117c-0.058,0-0.094,0.224-0.104,0.67
		c-0.006,0.451,0.022,0.694,0.104,0.73c0.057,0.04,0.251-0.036,0.58-0.233c0.335-0.193,0.646-0.374,0.937-0.541
		c0.293-0.165,1.691-1.161,1.858-1.357C141.706,36.129,141.793,35.965,141.793,35.827z"/>
	<path fill="#992838" d="M161.068,26.978c0-0.077,0.303-0.087,0.906-0.029c0.43,0.042,0.717,0.086,0.865,0.143
		c0.143,0.06,0.341,0.26,0.656,0.527c0.435,0.371,0.666,0.613,0.714,0.613s0.479,0.49,0.422,0.936
		c-0.153,1.071-1.91,2.462-2.009,2.699c-0.118,0.19,0.046,3.215,0.068,4.229c0.044,2.114,0.259,3.417,0.103,3.708
		c-0.099,0.194-0.325,0.29-0.675,0.29c-0.345,0-0.915-0.102-1.13-0.247c-0.28-0.188-0.604-0.237-0.811-0.805
		c-0.206-0.563-0.269-1.23-0.188-1.985c0.197-1.598,0.231-2.426,0.116-2.485c-0.078-0.06-0.377,0.046-0.891,0.309
		c-0.518,0.263-1.195,0.921-1.679,1.33c-0.293,0.271-0.508,0.44-0.645,0.509c-0.137,0.071-0.272,0.084-0.407,0.046
		c-0.51-0.118-0.763-0.514-0.763-1.2c0-0.31,0.034-0.523,0.104-0.639c0.068-0.117,0.293-0.36,0.685-0.733
		c0.546-0.503,2.556-2.503,3.513-3.524c0.951-1.018,1.409-1.741,1.471-1.838c0.239-0.372,0.53-0.995,0.512-1.211
		c-0.02-0.213-0.215-0.358-0.588-0.435C161.188,27.125,161.068,27.055,161.068,26.978z M161.219,19.968
		c0.212-0.254,0.379-0.416,0.493-0.482c0.118-0.065,0.275-0.105,0.466-0.105c0.548,0,1.005,0.441,1.374,1.316
		c0.156,0.429,0.261,1.251,0.312,2.469c0.046,1.219,0.029,1.932-0.049,2.15c-0.058,0.135-0.12,0.218-0.19,0.244
		c-0.07,0.029-0.238,0.025-0.508-0.012c-0.407-0.038-0.858,0.045-1.342,0.26c-0.487,0.216-0.785,0.41-1.014,0.559
		c-0.198,0.127-1.275,0.913-1.456,1.051c-0.187,0.136-0.436,0.338-0.745,0.614c-0.626,0.581-1.319,0.705-1.815,0.565
		c-0.076-0.021-0.47-0.116-0.6-0.217c-0.122-0.099-0.188-0.331-0.188-0.701c0-0.255,0.04-0.459,0.118-0.615
		c0.076-0.157,0.261-0.396,0.556-0.731c0.428-0.503,0.727-0.859,0.891-1.065c0.165-0.206,0.375-0.451,0.632-0.743
		c0.448-0.523,1.126-1.562,2.043-3.097C160.544,20.826,160.884,20.337,161.219,19.968z M175.972,24.698
		c0.19-0.137,0.495-0.193,0.9-0.175c0.409,0.021,0.761,0.098,1.054,0.234c0.778,0.41,1.254,0.79,1.433,1.139
		c0.078,0.155,0.025,0.335-0.127,0.335c-0.118,0-0.554,0.051-0.908,0.135c-0.498,0.111-0.855,0.191-1.038,0.241
		c-0.906,0.249-2.973,1.02-3.421,1.172c-0.533,0.187-1.021,0.36-1.039,0.368c-0.02,0.012,0.021,0.112,0.034,0.156
		c0.008,0.049,0.032,0.103,0.07,0.147c0.038,0.048,0.108,0.132,0.207,0.251c0.758,0.972,1.081,2.21,1.262,3.715
		c0.082,0.655,0.357,3.678,0.285,5.163c-0.068,1.383-0.074,2.356-0.219,2.925c-0.146,0.561-0.456,1.087-0.921,1.572
		c-0.312,0.336-0.558,0.528-0.73,0.587s-0.335,0.012-0.466-0.147c-0.116-0.097-0.548-0.157-1.288-0.175
		c-0.738-0.017-1.312,0.018-1.724,0.118c-0.602,0.157-0.845,0.164-0.728,0.029c0.114-0.139,0.501-0.371,1.167-0.701
		c1.073-0.545,1.78-1.013,2.117-1.402c0.343-0.389,0.64-1.052,0.887-1.99c0.122-0.447,0.188-0.87,0.207-1.267
		c0.021-0.401,0.021-1.281,0-2.643c-0.057-1.969-0.173-3.477-0.346-4.528l-0.327-1.729l-0.491,0.15
		c-0.875,0.203-4.097,1.325-4.368,1.483c-0.485,0.311-0.94,0.064-1.21-0.228c-0.142-0.155-0.36-0.301-0.678-0.438
		c-0.369-0.178-0.554-0.323-0.554-0.438c0-0.119,0.177-0.252,0.529-0.41c0.388-0.154,0.706-0.234,0.945-0.307
		c0.255-0.077,0.933-0.307,1.081-0.353c0.426-0.128,1.543-0.557,3.578-1.301c1.111-0.403,2.379-0.797,3.274-1.106
		C175.315,24.971,175.831,24.773,175.972,24.698z M169.743,19.831c0.155-0.019,0.403-0.049,0.703-0.024
		c0.391,0.037,0.762,0.051,1.502,0.189c0.749,0.136,1.176,0.265,1.303,0.308c0.185,0.059,0.474,0.147,0.993,0.45
		c0.485,0.284,0.771,0.548,0.904,0.701c0.081,0.101,0.11,0.173,0.089,0.219c-0.019,0.047-0.118,0.143-0.289,0.275
		c-0.432,0.354-0.854,0.642-1.272,0.863c-0.421,0.227-0.708,0.24-0.862,0.278c-0.563,0.134-0.939,0.329-1.784,1.044
		c-0.419,0.358-0.824,0.681-1.077,0.915c-0.313,0.273-0.468,0.331-0.468,0.176c-0.021-0.136,0.091-0.322,0.319-0.556
		c0.331-0.331,0.666-0.717,0.995-1.155c0.333-0.438,0.516-0.732,0.554-0.893c0.059-0.152-0.215-0.523-0.818-1.107
		c-0.468-0.467-0.839-0.729-1.045-0.863c-0.205-0.139-0.31-0.173-0.561-0.248c-0.299-0.084-0.358-0.146-0.06-0.32
		C169.122,19.938,169.37,19.892,169.743,19.831z"/>
</g>
<g>
	<g>
		<path fill="#992838" d="M85.7,58.844c0-2.382,0-2.822-0.032-3.322c-0.032-0.53-0.154-0.782-0.674-0.889
			c-0.125-0.033-0.392-0.053-0.614-0.053c-0.166,0-0.261-0.028-0.261-0.138c0-0.111,0.106-0.142,0.345-0.142
			c0.829,0,1.818,0.046,2.146,0.046c0.533,0,1.726-0.046,2.209-0.046c0.987,0,2.036,0.09,2.883,0.67
			c0.439,0.301,1.067,1.102,1.067,2.148c0,1.159-0.487,2.227-2.072,3.511c1.398,1.755,2.479,3.152,3.4,4.122
			c0.879,0.909,1.523,1.019,1.758,1.064c0.173,0.032,0.311,0.048,0.439,0.048c0.122,0,0.187,0.046,0.187,0.123
			c0,0.126-0.11,0.159-0.297,0.159h-1.488c-0.875,0-1.271-0.074-1.674-0.298c-0.676-0.361-1.272-1.097-2.148-2.303
			c-0.628-0.861-1.351-1.928-1.552-2.165c-0.082-0.09-0.176-0.106-0.28-0.106l-1.368-0.03c-0.076,0-0.125,0.03-0.125,0.126v0.218
			c0,1.454,0,2.693,0.083,3.352c0.042,0.459,0.138,0.801,0.609,0.862c0.232,0.028,0.578,0.063,0.767,0.063
			c0.126,0,0.187,0.046,0.187,0.123c0,0.11-0.106,0.159-0.311,0.159c-0.909,0-2.069-0.049-2.308-0.049
			c-0.293,0-1.282,0.049-1.91,0.049c-0.201,0-0.313-0.049-0.313-0.159c0-0.077,0.064-0.123,0.251-0.123
			c0.239,0,0.424-0.034,0.564-0.063c0.314-0.062,0.391-0.403,0.455-0.862c0.078-0.658,0.078-1.897,0.078-3.339V58.844z
			 M87.548,60.085c0,0.173,0.032,0.232,0.141,0.279c0.331,0.111,0.803,0.154,1.194,0.154c0.626,0,0.83-0.059,1.107-0.261
			c0.474-0.346,0.931-1.067,0.931-2.353c0-2.229-1.475-2.869-2.399-2.869c-0.394,0-0.677,0.017-0.833,0.063
			c-0.108,0.031-0.141,0.094-0.141,0.221V60.085z"/>
		<path fill="#992838" d="M97.528,58.844c0-2.382,0-2.822-0.03-3.322c-0.036-0.53-0.19-0.796-0.54-0.874
			C96.789,54.6,96.587,54.58,96.4,54.58c-0.158,0-0.253-0.028-0.253-0.155c0-0.094,0.126-0.124,0.377-0.124
			c0.594,0,1.581,0.046,2.037,0.046c0.389,0,1.317-0.046,1.914-0.046c0.2,0,0.324,0.03,0.324,0.124c0,0.127-0.094,0.155-0.246,0.155
			c-0.161,0-0.285,0.02-0.472,0.053c-0.421,0.075-0.548,0.338-0.58,0.889c-0.032,0.5-0.032,0.94-0.032,3.322v2.757
			c0,1.521,0,2.761,0.064,3.435c0.046,0.425,0.156,0.705,0.626,0.767c0.217,0.028,0.562,0.063,0.799,0.063
			c0.173,0,0.253,0.046,0.253,0.123c0,0.11-0.129,0.159-0.299,0.159c-1.034,0-2.022-0.049-2.446-0.049
			c-0.361,0-1.349,0.049-1.975,0.049c-0.202,0-0.314-0.049-0.314-0.159c0-0.077,0.064-0.123,0.253-0.123
			c0.236,0,0.423-0.034,0.563-0.063c0.313-0.062,0.407-0.33,0.457-0.786c0.077-0.654,0.077-1.894,0.077-3.415V58.844z"/>
		<path fill="#992838" d="M105.188,54.362c0.046-0.265,0.141-0.408,0.265-0.408c0.128,0,0.221,0.079,0.423,0.488l4.276,8.836
			l4.266-8.947c0.126-0.247,0.202-0.377,0.343-0.377c0.143,0,0.238,0.158,0.283,0.488l1.426,9.684
			c0.139,0.986,0.3,1.444,0.769,1.581c0.454,0.142,0.767,0.157,0.972,0.157c0.141,0,0.25,0.016,0.25,0.108
			c0,0.125-0.19,0.174-0.409,0.174c-0.389,0-2.552-0.049-3.18-0.094c-0.361-0.03-0.453-0.08-0.453-0.173
			c0-0.078,0.058-0.125,0.174-0.173c0.093-0.031,0.139-0.235,0.074-0.672l-0.937-6.897h-0.066l-3.413,7.115
			c-0.362,0.734-0.439,0.879-0.579,0.879c-0.143,0-0.297-0.315-0.55-0.784c-0.378-0.724-1.615-3.119-1.804-3.559
			c-0.139-0.325-1.084-2.302-1.63-3.478h-0.062l-0.814,6.235c-0.03,0.283-0.047,0.488-0.047,0.737c0,0.301,0.203,0.437,0.47,0.502
			c0.283,0.063,0.502,0.078,0.658,0.078c0.124,0,0.236,0.033,0.236,0.108c0,0.141-0.14,0.174-0.375,0.174
			c-0.662,0-1.366-0.049-1.647-0.049c-0.299,0-1.047,0.049-1.553,0.049c-0.154,0-0.28-0.033-0.28-0.174
			c0-0.075,0.094-0.108,0.25-0.108c0.125,0,0.237,0,0.47-0.048c0.439-0.096,0.562-0.704,0.645-1.234L105.188,54.362z"/>
		<path fill="#992838" d="M120.946,58.844c0-2.382,0-2.822-0.032-3.322c-0.03-0.53-0.156-0.782-0.672-0.889
			c-0.129-0.033-0.392-0.053-0.612-0.053c-0.17,0-0.267-0.028-0.267-0.138c0-0.111,0.11-0.142,0.345-0.142
			c0.424,0,0.875,0.014,1.272,0.014c0.407,0.017,0.765,0.032,0.985,0.032c0.501,0,3.617,0,3.92-0.016
			c0.293-0.03,0.544-0.06,0.671-0.093c0.078-0.017,0.172-0.063,0.248-0.063c0.081,0,0.099,0.063,0.099,0.14
			c0,0.11-0.082,0.296-0.129,1.02c-0.016,0.16-0.046,0.847-0.076,1.034c-0.016,0.079-0.05,0.174-0.158,0.174
			c-0.11,0-0.141-0.08-0.141-0.221c0-0.106-0.02-0.377-0.092-0.561c-0.114-0.285-0.27-0.473-1.052-0.567
			c-0.267-0.032-1.912-0.063-2.227-0.063c-0.076,0-0.106,0.045-0.106,0.157v3.966c0,0.106,0.012,0.172,0.106,0.172
			c0.347,0,2.15,0,2.508-0.033c0.375-0.032,0.607-0.078,0.754-0.232c0.108-0.129,0.171-0.206,0.249-0.206
			c0.063,0,0.108,0.032,0.108,0.126s-0.061,0.346-0.12,1.143c-0.019,0.313-0.066,0.942-0.066,1.052c0,0.125,0,0.296-0.141,0.296
			c-0.108,0-0.143-0.061-0.143-0.14c-0.012-0.156-0.012-0.358-0.06-0.564c-0.081-0.312-0.299-0.549-0.879-0.608
			c-0.299-0.035-1.851-0.051-2.224-0.051c-0.082,0-0.094,0.064-0.094,0.157v1.236c0,0.536-0.019,1.977,0,2.428
			c0.03,1.084,0.28,1.319,1.88,1.319c0.405,0,1.065,0,1.473-0.187c0.407-0.19,0.592-0.518,0.704-1.16
			c0.032-0.174,0.064-0.235,0.171-0.235c0.124,0,0.124,0.124,0.124,0.283c0,0.359-0.124,1.423-0.2,1.737
			c-0.106,0.407-0.253,0.407-0.847,0.407c-1.174,0-2.039-0.033-2.713-0.047c-0.672-0.033-1.153-0.049-1.627-0.049
			c-0.173,0-0.516,0-0.896,0.016c-0.358,0-0.767,0.033-1.081,0.033c-0.203,0-0.313-0.049-0.313-0.159
			c0-0.077,0.063-0.123,0.253-0.123c0.235,0,0.426-0.034,0.564-0.063c0.311-0.062,0.387-0.403,0.453-0.862
			c0.078-0.658,0.078-1.897,0.078-3.339V58.844z"/>
		<path fill="#992838" d="M149.647,58.844c0-2.382,0-2.822-0.032-3.322c-0.032-0.53-0.19-0.796-0.535-0.874
			c-0.171-0.048-0.373-0.067-0.562-0.067c-0.157,0-0.253-0.028-0.253-0.155c0-0.094,0.122-0.124,0.375-0.124
			c0.598,0,1.585,0.046,2.04,0.046c0.39,0,1.314-0.046,1.908-0.046c0.207,0,0.329,0.03,0.329,0.124c0,0.127-0.094,0.155-0.249,0.155
			c-0.156,0-0.282,0.02-0.471,0.053c-0.422,0.075-0.548,0.338-0.58,0.889c-0.03,0.5-0.03,0.94-0.03,3.322v2.757
			c0,1.521,0,2.761,0.063,3.435c0.048,0.425,0.156,0.705,0.628,0.767c0.217,0.028,0.56,0.063,0.798,0.063
			c0.177,0,0.253,0.046,0.253,0.123c0,0.11-0.124,0.159-0.299,0.159c-1.035,0-2.024-0.049-2.447-0.049
			c-0.357,0-1.345,0.049-1.973,0.049c-0.203,0-0.313-0.049-0.313-0.159c0-0.077,0.063-0.123,0.248-0.123
			c0.237,0,0.424-0.034,0.568-0.063c0.311-0.062,0.403-0.33,0.453-0.786c0.08-0.654,0.08-1.894,0.08-3.415V58.844z"/>
		<path fill="#992838" d="M157.306,54.362c0.045-0.265,0.139-0.408,0.266-0.408c0.126,0,0.221,0.079,0.423,0.488l4.279,8.836
			l4.26-8.947c0.127-0.247,0.207-0.377,0.346-0.377c0.142,0,0.236,0.158,0.284,0.488l1.425,9.684
			c0.139,0.986,0.299,1.444,0.767,1.581c0.453,0.142,0.771,0.157,0.973,0.157c0.143,0,0.251,0.016,0.251,0.108
			c0,0.125-0.188,0.174-0.409,0.174c-0.392,0-2.554-0.049-3.178-0.094c-0.363-0.03-0.458-0.08-0.458-0.173
			c0-0.078,0.063-0.125,0.175-0.173c0.092-0.031,0.139-0.235,0.078-0.672l-0.938-6.897h-0.066l-3.415,7.115
			c-0.359,0.734-0.439,0.879-0.578,0.879c-0.143,0-0.301-0.315-0.55-0.784c-0.375-0.724-1.615-3.119-1.802-3.559
			c-0.141-0.325-1.083-2.302-1.631-3.478h-0.061l-0.814,6.235c-0.03,0.283-0.048,0.488-0.048,0.737c0,0.301,0.204,0.437,0.468,0.502
			c0.284,0.063,0.501,0.078,0.662,0.078c0.122,0,0.232,0.033,0.232,0.108c0,0.141-0.137,0.174-0.375,0.174
			c-0.66,0-1.369-0.049-1.646-0.049c-0.299,0-1.052,0.049-1.555,0.049c-0.152,0-0.277-0.033-0.277-0.174
			c0-0.075,0.093-0.108,0.251-0.108c0.124,0,0.232,0,0.468-0.048c0.439-0.096,0.565-0.704,0.644-1.234L157.306,54.362z"/>
		<path fill="#992838" d="M173.064,58.844c0-2.382,0-2.822-0.03-3.322c-0.032-0.53-0.156-0.782-0.676-0.889
			c-0.123-0.033-0.394-0.053-0.612-0.053c-0.169,0-0.263-0.028-0.263-0.138c0-0.111,0.108-0.142,0.343-0.142
			c0.421,0,0.879,0.014,1.272,0.014c0.407,0.017,0.766,0.032,0.982,0.032c0.508,0,3.622,0,3.921-0.016
			c0.299-0.03,0.544-0.06,0.672-0.093c0.078-0.017,0.171-0.063,0.253-0.063c0.076,0,0.095,0.063,0.095,0.14
			c0,0.11-0.083,0.296-0.129,1.02c-0.014,0.16-0.048,0.847-0.078,1.034c-0.014,0.079-0.046,0.174-0.156,0.174
			c-0.112,0-0.145-0.08-0.145-0.221c0-0.106-0.013-0.377-0.091-0.561c-0.11-0.285-0.267-0.473-1.051-0.567
			c-0.263-0.032-1.912-0.063-2.224-0.063c-0.078,0-0.112,0.045-0.112,0.157v3.966c0,0.106,0.019,0.172,0.112,0.172
			c0.344,0,2.146,0,2.509-0.033c0.375-0.032,0.609-0.078,0.75-0.232c0.106-0.129,0.173-0.206,0.251-0.206
			c0.063,0,0.11,0.032,0.11,0.126s-0.063,0.346-0.125,1.143c-0.012,0.313-0.063,0.942-0.063,1.052c0,0.125,0,0.296-0.139,0.296
			c-0.11,0-0.141-0.061-0.141-0.14c-0.016-0.156-0.016-0.358-0.066-0.564c-0.078-0.312-0.295-0.549-0.874-0.608
			c-0.3-0.035-1.851-0.051-2.228-0.051c-0.078,0-0.097,0.064-0.097,0.157v1.236c0,0.536-0.012,1.977,0,2.428
			c0.034,1.084,0.281,1.319,1.883,1.319c0.407,0,1.069,0,1.475-0.187c0.407-0.19,0.596-0.518,0.706-1.16
			c0.025-0.174,0.06-0.235,0.168-0.235c0.125,0,0.125,0.124,0.125,0.283c0,0.359-0.125,1.423-0.201,1.737
			c-0.11,0.407-0.253,0.407-0.847,0.407c-1.176,0-2.04-0.033-2.713-0.047c-0.672-0.033-1.157-0.049-1.627-0.049
			c-0.17,0-0.516,0-0.893,0.016c-0.359,0-0.767,0.033-1.081,0.033c-0.205,0-0.313-0.049-0.313-0.159
			c0-0.077,0.061-0.123,0.247-0.123c0.234,0,0.425-0.034,0.567-0.063c0.312-0.062,0.39-0.403,0.454-0.862
			c0.078-0.658,0.078-1.897,0.078-3.339V58.844z"/>
	</g>
	<g>
		<path fill="#992838" d="M72.302,54.996c0-3.62,0-4.286-0.042-5.044c-0.053-0.812-0.241-1.192-1.025-1.356
			c-0.19-0.047-0.6-0.074-0.936-0.074c-0.255,0-0.4-0.048-0.4-0.213c0-0.168,0.166-0.214,0.527-0.214c1.258,0,2.757,0.07,3.425,0.07
			c0.975,0,2.354-0.07,3.449-0.07c2.978,0,4.049,0.997,4.43,1.356c0.521,0.501,1.189,1.573,1.189,2.83
			c0,3.379-2.478,5.758-5.856,5.758c-0.118,0-0.381,0-0.497-0.021c-0.118-0.024-0.287-0.048-0.287-0.213
			c0-0.19,0.169-0.263,0.666-0.263c1.33,0,3.188-1.503,3.188-3.931c0-0.783-0.07-2.376-1.407-3.568
			c-0.853-0.78-1.829-0.924-2.375-0.924c-0.359,0-0.715,0.021-0.929,0.093c-0.114,0.051-0.193,0.187-0.193,0.454v9.516
			c0,2.189,0,4.07,0.123,5.094c0.07,0.67,0.213,1.191,0.927,1.285c0.335,0.049,0.856,0.097,1.214,0.097
			c0.263,0,0.381,0.07,0.381,0.189c0,0.168-0.19,0.236-0.453,0.236c-1.573,0-3.069-0.068-3.689-0.068
			c-0.548,0-2.047,0.068-2.998,0.068c-0.307,0-0.478-0.068-0.478-0.236c0-0.119,0.099-0.189,0.38-0.189
			c0.36,0,0.646-0.048,0.856-0.097c0.479-0.094,0.596-0.615,0.694-1.311c0.116-0.998,0.116-2.879,0.116-5.068V54.996z"/>
	</g>
	<g>
		<path fill="#992838" d="M137.716,49.428l-3.543,0.094c-1.381,0.045-1.948,0.163-2.31,0.688c-0.239,0.356-0.357,0.645-0.403,0.834
			c-0.046,0.191-0.123,0.285-0.263,0.285c-0.169,0-0.217-0.117-0.217-0.38c0-0.383,0.457-2.547,0.501-2.736
			c0.07-0.31,0.143-0.455,0.287-0.455c0.19,0,0.428,0.239,1.023,0.288c0.69,0.072,1.593,0.119,2.378,0.119h9.424
			c0.767,0,1.288-0.07,1.646-0.119c0.356-0.072,0.547-0.119,0.64-0.119c0.171,0,0.192,0.144,0.192,0.5
			c0,0.503-0.072,2.14-0.072,2.762c-0.023,0.238-0.072,0.379-0.213,0.379c-0.19,0-0.242-0.118-0.263-0.477l-0.027-0.264
			c-0.045-0.617-0.688-1.284-2.806-1.33l-2.995-0.069v9.754c0,2.189,0,4.07,0.116,5.094c0.074,0.67,0.215,1.191,0.929,1.285
			c0.331,0.049,0.857,0.097,1.214,0.097c0.259,0,0.382,0.07,0.382,0.189c0,0.168-0.193,0.236-0.454,0.236
			c-1.57,0-3.071-0.068-3.733-0.068c-0.552,0-2.049,0.068-3.002,0.068c-0.309,0-0.478-0.068-0.478-0.236
			c0-0.119,0.099-0.189,0.384-0.189c0.356,0,0.64-0.048,0.856-0.097c0.474-0.094,0.616-0.615,0.692-1.311
			c0.114-0.998,0.114-2.879,0.114-5.068V49.428z"/>
	</g>
</g>
</svg>
